<?plantuml 1.2026.2?><svg xmlns="http://www.w3.org/2000/svg" xmlns:xlink="http://www.w3.org/1999/xlink" contentStyleType="text/css" data-diagram-type="DESCRIPTION" height="676px" preserveAspectRatio="none" style="width:2172px;height:676px;background:#FFFFFF;" version="1.1" viewBox="0 0 2172 676" width="2172px" zoomAndPan="magnify"><title>Ki&#7871;n tr&#250;c t&#7893;ng qu&#225;t MSAS - B&#7843;n c&#7853;p nh&#7853;t</title><defs/><g><g class="title" data-source-line="1"><text fill="#000000" font-family="'Arial'" font-size="14" font-weight="bold" lengthAdjust="spacing" textLength="273.0068" x="942.9646" y="23.1318">Ki&#7871;n tr&#250;c t&#7893;ng qu&#225;t MSAS - B&#7843;n c&#7853;p nh&#7853;t</text></g><!--cluster Sources--><g class="cluster" data-qualified-name="Sources" data-source-line="20" id="ent0002"><rect fill="#FFFFFF" height="301.5" rx="2.5" ry="2.5" style="stroke:#111111;stroke-width:1;" width="519" x="7" y="201.0986"/><text fill="#000000" font-family="'Arial'" font-size="11" font-weight="bold" lengthAdjust="spacing" textLength="106.9546" x="213.0227" y="213.4165">Ngu&#7891;n d&#7919; li&#7879;u ngo&#224;i</text></g><!--cluster Frontend--><g class="cluster" data-qualified-name="Frontend" data-source-line="28" id="ent0008"><rect fill="#FFFFFF" height="90" rx="2.5" ry="2.5" style="stroke:#111111;stroke-width:1;" width="331" x="549" y="44.0986"/><text fill="#000000" font-family="'Arial'" font-size="11" font-weight="bold" lengthAdjust="spacing" textLength="47.6577" x="690.6711" y="56.4165">Frontend</text></g><!--cluster Backend--><g class="cluster" data-qualified-name="Backend" data-source-line="33" id="ent0011"><rect fill="#FFFFFF" height="131" rx="2.5" ry="2.5" style="stroke:#111111;stroke-width:1;" width="1014" x="710" y="188.0986"/><text fill="#000000" font-family="'Arial'" font-size="11" font-weight="bold" lengthAdjust="spacing" textLength="67.2461" x="1183.377" y="200.4165">Backend API</text><text fill="#000000" font-family="'Arial'" font-size="11" font-weight="bold" lengthAdjust="spacing" textLength="245.3945" x="1094.3027" y="213.0654">ASP.NET Core + JWT + RBAC + TenantContext</text></g><!--cluster Python--><g class="cluster" data-qualified-name="Python" data-source-line="42" id="ent0018"><rect fill="#FFFFFF" height="115" rx="2.5" ry="2.5" style="stroke:#111111;stroke-width:1;" width="520" x="558" y="386.0986"/><text fill="#000000" font-family="'Arial'" font-size="11" font-weight="bold" lengthAdjust="spacing" textLength="85.5938" x="775.2031" y="398.4165">Python Services</text></g><!--cluster Pg--><g class="cluster" data-qualified-name="Pg" data-source-line="48" id="ent0022"><rect fill="#FFFFFF" height="101" rx="2.5" ry="2.5" style="stroke:#111111;stroke-width:1;" width="446" x="819" y="569.5986"/><text fill="#000000" font-family="'Arial'" font-size="11" font-weight="bold" lengthAdjust="spacing" textLength="78.8584" x="1002.5708" y="581.9165">PostgreSQL 17</text></g><!--cluster External--><g class="cluster" data-qualified-name="External" data-source-line="54" id="ent0026"><rect fill="#FFFFFF" height="90" rx="2.5" ry="2.5" style="stroke:#111111;stroke-width:1;" width="426" x="1627" y="398.5986"/><text fill="#000000" font-family="'Arial'" font-size="11" font-weight="bold" lengthAdjust="spacing" textLength="72.1177" x="1803.9412" y="410.9165">D&#7883;ch v&#7909; ngo&#224;i</text></g><!--entity Marketplaces--><g class="entity" data-qualified-name="Sources.Marketplaces" data-source-line="21" id="ent0003"><rect fill="#FFFFFF" height="55.2979" rx="2.5" ry="2.5" style="stroke:#111111;stroke-width:0.5;" width="129.2944" x="31.5" y="240.0986"/><rect fill="#FFFFFF" height="10" style="stroke:#111111;stroke-width:0.5;" width="15" x="140.7944" y="245.0986"/><rect fill="#FFFFFF" height="2" style="stroke:#111111;stroke-width:0.5;" width="4" x="138.7944" y="247.0986"/><rect fill="#FFFFFF" height="2" style="stroke:#111111;stroke-width:0.5;" width="4" x="138.7944" y="251.0986"/><text fill="#000000" font-family="'Arial'" font-size="11" lengthAdjust="spacing" textLength="89.2944" x="46.5" y="270.4165">Shopee / Lazada /</text><text fill="#000000" font-family="'Arial'" font-size="11" lengthAdjust="spacing" textLength="61.7461" x="46.5" y="283.0654">TikTok Shop</text></g><!--entity Csv--><g class="entity" data-qualified-name="Sources.Csv" data-source-line="22" id="ent0004"><rect fill="#FFFFFF" height="42.6489" rx="2.5" ry="2.5" style="stroke:#111111;stroke-width:0.5;" width="132.3022" x="196" y="246.0986"/><rect fill="#FFFFFF" height="10" style="stroke:#111111;stroke-width:0.5;" width="15" x="308.3022" y="251.0986"/><rect fill="#FFFFFF" height="2" style="stroke:#111111;stroke-width:0.5;" width="4" x="306.3022" y="253.0986"/><rect fill="#FFFFFF" height="2" style="stroke:#111111;stroke-width:0.5;" width="4" x="306.3022" y="257.0986"/><text fill="#000000" font-family="'Arial'" font-size="11" lengthAdjust="spacing" textLength="92.3022" x="211" y="276.4165">CSV / Excel import</text></g><!--entity Ghn--><g class="entity" data-qualified-name="Sources.Ghn" data-source-line="23" id="ent0005"><rect fill="#FFFFFF" height="42.6489" rx="2.5" ry="2.5" style="stroke:#111111;stroke-width:0.5;" width="64.4438" x="64" y="429.5986"/><rect fill="#FFFFFF" height="10" style="stroke:#111111;stroke-width:0.5;" width="15" x="108.4438" y="434.5986"/><rect fill="#FFFFFF" height="2" style="stroke:#111111;stroke-width:0.5;" width="4" x="106.4438" y="436.5986"/><rect fill="#FFFFFF" height="2" style="stroke:#111111;stroke-width:0.5;" width="4" x="106.4438" y="440.5986"/><text fill="#000000" font-family="'Arial'" font-size="11" lengthAdjust="spacing" textLength="24.4438" x="79" y="459.9165">GHN</text></g><!--entity Vnpay--><g class="entity" data-qualified-name="Sources.Vnpay" data-source-line="24" id="ent0006"><rect fill="#FFFFFF" height="42.6489" rx="2.5" ry="2.5" style="stroke:#111111;stroke-width:0.5;" width="118.8584" x="363.5" y="246.0986"/><rect fill="#FFFFFF" height="10" style="stroke:#111111;stroke-width:0.5;" width="15" x="462.3584" y="251.0986"/><rect fill="#FFFFFF" height="2" style="stroke:#111111;stroke-width:0.5;" width="4" x="460.3584" y="253.0986"/><rect fill="#FFFFFF" height="2" style="stroke:#111111;stroke-width:0.5;" width="4" x="460.3584" y="257.0986"/><text fill="#000000" font-family="'Arial'" font-size="11" lengthAdjust="spacing" textLength="78.8584" x="378.5" y="276.4165">VNPay / VietQR</text></g><!--entity Scraper--><g class="entity" data-qualified-name="Sources.Scraper" data-source-line="25" id="ent0007"><rect fill="#FFFFFF" height="55.2979" rx="2.5" ry="2.5" style="stroke:#111111;stroke-width:0.5;" width="132.9468" x="163.5" y="423.5986"/><rect fill="#FFFFFF" height="10" style="stroke:#111111;stroke-width:0.5;" width="15" x="276.4468" y="428.5986"/><rect fill="#FFFFFF" height="2" style="stroke:#111111;stroke-width:0.5;" width="4" x="274.4468" y="430.5986"/><rect fill="#FFFFFF" height="2" style="stroke:#111111;stroke-width:0.5;" width="4" x="274.4468" y="434.5986"/><text fill="#000000" font-family="'Arial'" font-size="11" lengthAdjust="spacing" textLength="92.9468" x="178.5" y="453.9165">Facebook / Google</text><text fill="#000000" font-family="'Arial'" font-size="11" lengthAdjust="spacing" textLength="36.6792" x="178.5" y="466.5654">scraper</text></g><!--entity Web--><g class="entity" data-qualified-name="Frontend.Web" data-source-line="29" id="ent0009"><rect fill="#FFFFFF" height="42.6489" rx="2.5" ry="2.5" style="stroke:#111111;stroke-width:0.5;" width="125.8999" x="565" y="75.0986"/><rect fill="#FFFFFF" height="10" style="stroke:#111111;stroke-width:0.5;" width="15" x="670.8999" y="80.0986"/><rect fill="#FFFFFF" height="2" style="stroke:#111111;stroke-width:0.5;" width="4" x="668.8999" y="82.0986"/><rect fill="#FFFFFF" height="2" style="stroke:#111111;stroke-width:0.5;" width="4" x="668.8999" y="86.0986"/><text fill="#000000" font-family="'Arial'" font-size="11" lengthAdjust="spacing" textLength="85.8999" x="580" y="105.4165">React + Vite Web</text></g><!--entity Mobile--><g class="entity" data-qualified-name="Frontend.Mobile" data-source-line="30" id="ent0010"><rect fill="#FFFFFF" height="42.6489" rx="2.5" ry="2.5" style="stroke:#111111;stroke-width:0.5;" width="137.2114" x="726.5" y="75.0986"/><rect fill="#FFFFFF" height="10" style="stroke:#111111;stroke-width:0.5;" width="15" x="843.7114" y="80.0986"/><rect fill="#FFFFFF" height="2" style="stroke:#111111;stroke-width:0.5;" width="4" x="841.7114" y="82.0986"/><rect fill="#FFFFFF" height="2" style="stroke:#111111;stroke-width:0.5;" width="4" x="841.7114" y="86.0986"/><text fill="#000000" font-family="'Arial'" font-size="11" lengthAdjust="spacing" textLength="97.2114" x="741.5" y="105.4165">React Native / Expo</text></g><!--entity Auth--><g class="entity" data-qualified-name="Backend.Auth" data-source-line="34" id="ent0012"><rect fill="#FFFFFF" height="55.2979" rx="2.5" ry="2.5" style="stroke:#111111;stroke-width:0.5;" width="109.0884" x="1089.5" y="240.0986"/><rect fill="#FFFFFF" height="10" style="stroke:#111111;stroke-width:0.5;" width="15" x="1178.5884" y="245.0986"/><rect fill="#FFFFFF" height="2" style="stroke:#111111;stroke-width:0.5;" width="4" x="1176.5884" y="247.0986"/><rect fill="#FFFFFF" height="2" style="stroke:#111111;stroke-width:0.5;" width="4" x="1176.5884" y="251.0986"/><text fill="#000000" font-family="'Arial'" font-size="11" lengthAdjust="spacing" textLength="69.0884" x="1104.5" y="270.4165">Auth / Admin /</text><text fill="#000000" font-family="'Arial'" font-size="11" lengthAdjust="spacing" textLength="60.5322" x="1104.5" y="283.0654">Subscription</text></g><!--entity Dashboard--><g class="entity" data-qualified-name="Backend.Dashboard" data-source-line="35" id="ent0013"><rect fill="#FFFFFF" height="42.6489" rx="2.5" ry="2.5" style="stroke:#111111;stroke-width:0.5;" width="135.9976" x="1234" y="246.0986"/><rect fill="#FFFFFF" height="10" style="stroke:#111111;stroke-width:0.5;" width="15" x="1349.9976" y="251.0986"/><rect fill="#FFFFFF" height="2" style="stroke:#111111;stroke-width:0.5;" width="4" x="1347.9976" y="253.0986"/><rect fill="#FFFFFF" height="2" style="stroke:#111111;stroke-width:0.5;" width="4" x="1347.9976" y="257.0986"/><text fill="#000000" font-family="'Arial'" font-size="11" lengthAdjust="spacing" textLength="95.9976" x="1249" y="276.4165">Dashboard / Report</text></g><!--entity Business--><g class="entity" data-qualified-name="Backend.Business" data-source-line="36" id="ent0014"><rect fill="#FFFFFF" height="55.2979" rx="2.5" ry="2.5" style="stroke:#111111;stroke-width:0.5;" width="133.5483" x="1405" y="240.0986"/><rect fill="#FFFFFF" height="10" style="stroke:#111111;stroke-width:0.5;" width="15" x="1518.5483" y="245.0986"/><rect fill="#FFFFFF" height="2" style="stroke:#111111;stroke-width:0.5;" width="4" x="1516.5483" y="247.0986"/><rect fill="#FFFFFF" height="2" style="stroke:#111111;stroke-width:0.5;" width="4" x="1516.5483" y="251.0986"/><text fill="#000000" font-family="'Arial'" font-size="11" lengthAdjust="spacing" textLength="92.3076" x="1420" y="270.4165">Orders / Products /</text><text fill="#000000" font-family="'Arial'" font-size="11" lengthAdjust="spacing" textLength="93.5483" x="1420" y="283.0654">Inventory / Finance</text></g><!--entity Sync--><g class="entity" data-qualified-name="Backend.Sync" data-source-line="37" id="ent0015"><rect fill="#FFFFFF" height="42.6489" rx="2.5" ry="2.5" style="stroke:#111111;stroke-width:0.5;" width="156.7676" x="753.5" y="246.0986"/><rect fill="#FFFFFF" height="10" style="stroke:#111111;stroke-width:0.5;" width="15" x="890.2676" y="251.0986"/><rect fill="#FFFFFF" height="2" style="stroke:#111111;stroke-width:0.5;" width="4" x="888.2676" y="253.0986"/><rect fill="#FFFFFF" height="2" style="stroke:#111111;stroke-width:0.5;" width="4" x="888.2676" y="257.0986"/><text fill="#000000" font-family="'Arial'" font-size="11" lengthAdjust="spacing" textLength="116.7676" x="768.5" y="276.4165">DataSync / ETL Monitor</text></g><!--entity AiCtrl--><g class="entity" data-qualified-name="Backend.AiCtrl" data-source-line="38" id="ent0016"><rect fill="#FFFFFF" height="55.2979" rx="2.5" ry="2.5" style="stroke:#111111;stroke-width:0.5;" width="109.0776" x="945.5" y="240.0986"/><rect fill="#FFFFFF" height="10" style="stroke:#111111;stroke-width:0.5;" width="15" x="1034.5776" y="245.0986"/><rect fill="#FFFFFF" height="2" style="stroke:#111111;stroke-width:0.5;" width="4" x="1032.5776" y="247.0986"/><rect fill="#FFFFFF" height="2" style="stroke:#111111;stroke-width:0.5;" width="4" x="1032.5776" y="251.0986"/><text fill="#000000" font-family="'Arial'" font-size="11" lengthAdjust="spacing" textLength="57.4653" x="960.5" y="270.4165">AiController</text><text fill="#000000" font-family="'Arial'" font-size="11" lengthAdjust="spacing" textLength="69.0776" x="960.5" y="283.0654">FastAPI proxy</text></g><!--entity Chatbot--><g class="entity" data-qualified-name="Backend.Chatbot" data-source-line="39" id="ent0017"><rect fill="#FFFFFF" height="55.2979" rx="2.5" ry="2.5" style="stroke:#111111;stroke-width:0.5;" width="126.2114" x="1574" y="240.0986"/><rect fill="#FFFFFF" height="10" style="stroke:#111111;stroke-width:0.5;" width="15" x="1680.2114" y="245.0986"/><rect fill="#FFFFFF" height="2" style="stroke:#111111;stroke-width:0.5;" width="4" x="1678.2114" y="247.0986"/><rect fill="#FFFFFF" height="2" style="stroke:#111111;stroke-width:0.5;" width="4" x="1678.2114" y="251.0986"/><text fill="#000000" font-family="'Arial'" font-size="11" lengthAdjust="spacing" textLength="86.2114" x="1589" y="270.4165">ChatbotController</text><text fill="#000000" font-family="'Arial'" font-size="11" lengthAdjust="spacing" textLength="71.5215" x="1589" y="283.0654">GeminiService</text></g><!--entity Import--><g class="entity" data-qualified-name="Python.Import" data-source-line="43" id="ent0019"><rect fill="#FFFFFF" height="42.6489" rx="2.5" ry="2.5" style="stroke:#111111;stroke-width:0.5;" width="131.3945" x="574.5" y="429.5986"/><rect fill="#FFFFFF" height="10" style="stroke:#111111;stroke-width:0.5;" width="15" x="685.8945" y="434.5986"/><rect fill="#FFFFFF" height="2" style="stroke:#111111;stroke-width:0.5;" width="4" x="683.8945" y="436.5986"/><rect fill="#FFFFFF" height="2" style="stroke:#111111;stroke-width:0.5;" width="4" x="683.8945" y="440.5986"/><text fill="#000000" font-family="'Arial'" font-size="11" lengthAdjust="spacing" textLength="91.3945" x="589.5" y="459.9165">Import + normalize</text></g><!--entity Etl--><g class="entity" data-qualified-name="Python.Etl" data-source-line="44" id="ent0020"><rect fill="#FFFFFF" height="42.6489" rx="2.5" ry="2.5" style="stroke:#111111;stroke-width:0.5;" width="126.4854" x="741" y="429.5986"/><rect fill="#FFFFFF" height="10" style="stroke:#111111;stroke-width:0.5;" width="15" x="847.4854" y="434.5986"/><rect fill="#FFFFFF" height="2" style="stroke:#111111;stroke-width:0.5;" width="4" x="845.4854" y="436.5986"/><rect fill="#FFFFFF" height="2" style="stroke:#111111;stroke-width:0.5;" width="4" x="845.4854" y="440.5986"/><text fill="#000000" font-family="'Arial'" font-size="11" lengthAdjust="spacing" textLength="86.4854" x="756" y="459.9165">ETL OLTP -&gt; DW</text></g><!--entity AiService--><g class="entity" data-qualified-name="Python.AiService" data-source-line="45" id="ent0021"><rect fill="#FFFFFF" height="67.9468" rx="2.5" ry="2.5" style="stroke:#111111;stroke-width:0.5;" width="159.813" x="902" y="417.0986"/><rect fill="#FFFFFF" height="10" style="stroke:#111111;stroke-width:0.5;" width="15" x="1041.813" y="422.0986"/><rect fill="#FFFFFF" height="2" style="stroke:#111111;stroke-width:0.5;" width="4" x="1039.813" y="424.0986"/><rect fill="#FFFFFF" height="2" style="stroke:#111111;stroke-width:0.5;" width="4" x="1039.813" y="428.0986"/><text fill="#000000" font-family="'Arial'" font-size="11" lengthAdjust="spacing" textLength="92.3076" x="917" y="447.4165">FastAPI AI Service</text><text fill="#000000" font-family="'Arial'" font-size="11" lengthAdjust="spacing" textLength="119.813" x="917" y="460.0654">forecast, anomaly, RFM,</text><text fill="#000000" font-family="'Arial'" font-size="11" lengthAdjust="spacing" textLength="116.7837" x="917" y="472.7144">churn, basket, inventory</text></g><!--entity Public--><g class="entity" data-qualified-name="Pg.Public" data-source-line="49" id="ent0023"><path d="M986,610.5986 C986,600.5986 1035.1338,600.5986 1035.1338,600.5986 C1035.1338,600.5986 1084.2676,600.5986 1084.2676,610.5986 L1084.2676,644.8965 C1084.2676,654.8965 1035.1338,654.8965 1035.1338,654.8965 C1035.1338,654.8965 986,654.8965 986,644.8965 L986,610.5986" fill="#FFFFFF" style="stroke:#111111;stroke-width:0.5;"/><path d="M986,610.5986 C986,620.5986 1035.1338,620.5986 1035.1338,620.5986 C1035.1338,620.5986 1084.2676,620.5986 1084.2676,610.5986" fill="none" style="stroke:#111111;stroke-width:0.5;"/><text fill="#000000" font-family="'Arial'" font-size="11" lengthAdjust="spacing" textLength="28.7407" x="996" y="634.9165">public</text><text fill="#000000" font-family="'Arial'" font-size="11" lengthAdjust="spacing" textLength="78.2676" x="996" y="647.5654">OLTP - 55 b&#7843;ng</text></g><!--entity Staging--><g class="entity" data-qualified-name="Pg.Staging" data-source-line="50" id="ent0024"><path d="M835.5,610.5986 C835.5,600.5986 892.8811,600.5986 892.8811,600.5986 C892.8811,600.5986 950.2622,600.5986 950.2622,610.5986 L950.2622,644.8965 C950.2622,654.8965 892.8811,654.8965 892.8811,654.8965 C892.8811,654.8965 835.5,654.8965 835.5,644.8965 L835.5,610.5986" fill="#FFFFFF" style="stroke:#111111;stroke-width:0.5;"/><path d="M835.5,610.5986 C835.5,620.5986 892.8811,620.5986 892.8811,620.5986 C892.8811,620.5986 950.2622,620.5986 950.2622,610.5986" fill="none" style="stroke:#111111;stroke-width:0.5;"/><text fill="#000000" font-family="'Arial'" font-size="11" lengthAdjust="spacing" textLength="35.4707" x="845.5" y="634.9165">staging</text><text fill="#000000" font-family="'Arial'" font-size="11" lengthAdjust="spacing" textLength="94.7622" x="845.5" y="647.5654">raw/import - 9 b&#7843;ng</text></g><!--entity Dw--><g class="entity" data-qualified-name="Pg.Dw" data-source-line="51" id="ent0025"><path d="M1119.5,610.5986 C1119.5,600.5986 1184.2234,600.5986 1184.2234,600.5986 C1184.2234,600.5986 1248.9468,600.5986 1248.9468,610.5986 L1248.9468,644.8965 C1248.9468,654.8965 1184.2234,654.8965 1184.2234,654.8965 C1184.2234,654.8965 1119.5,654.8965 1119.5,644.8965 L1119.5,610.5986" fill="#FFFFFF" style="stroke:#111111;stroke-width:0.5;"/><path d="M1119.5,610.5986 C1119.5,620.5986 1184.2234,620.5986 1184.2234,620.5986 C1184.2234,620.5986 1248.9468,620.5986 1248.9468,610.5986" fill="none" style="stroke:#111111;stroke-width:0.5;"/><text fill="#000000" font-family="'Arial'" font-size="11" lengthAdjust="spacing" textLength="14.0615" x="1129.5" y="634.9165">dw</text><text fill="#000000" font-family="'Arial'" font-size="11" lengthAdjust="spacing" textLength="109.4468" x="1129.5" y="647.5654">star schema - 10 b&#7843;ng</text></g><!--entity Gemini--><g class="entity" data-qualified-name="External.Gemini" data-source-line="55" id="ent0027"><rect fill="#FFFFFF" height="42.6489" rx="2.5" ry="2.5" style="stroke:#111111;stroke-width:0.5;" width="113.3691" x="1783.5" y="429.5986"/><rect fill="#FFFFFF" height="10" style="stroke:#111111;stroke-width:0.5;" width="15" x="1876.8691" y="434.5986"/><rect fill="#FFFFFF" height="2" style="stroke:#111111;stroke-width:0.5;" width="4" x="1874.8691" y="436.5986"/><rect fill="#FFFFFF" height="2" style="stroke:#111111;stroke-width:0.5;" width="4" x="1874.8691" y="440.5986"/><text fill="#000000" font-family="'Arial'" font-size="11" lengthAdjust="spacing" textLength="73.3691" x="1798.5" y="459.9165">Google Gemini</text></g><!--entity Groq--><g class="entity" data-qualified-name="External.Groq" data-source-line="56" id="ent0028"><rect fill="#FFFFFF" height="42.6489" rx="2.5" ry="2.5" style="stroke:#111111;stroke-width:0.5;" width="104.8076" x="1931.5" y="429.5986"/><rect fill="#FFFFFF" height="10" style="stroke:#111111;stroke-width:0.5;" width="15" x="2016.3076" y="434.5986"/><rect fill="#FFFFFF" height="2" style="stroke:#111111;stroke-width:0.5;" width="4" x="2014.3076" y="436.5986"/><rect fill="#FFFFFF" height="2" style="stroke:#111111;stroke-width:0.5;" width="4" x="2014.3076" y="440.5986"/><text fill="#000000" font-family="'Arial'" font-size="11" lengthAdjust="spacing" textLength="64.8076" x="1946.5" y="459.9165">Groq fallback</text></g><!--entity Email--><g class="entity" data-qualified-name="External.Email" data-source-line="57" id="ent0029"><rect fill="#FFFFFF" height="42.6489" rx="2.5" ry="2.5" style="stroke:#111111;stroke-width:0.5;" width="105.4038" x="1643.5" y="429.5986"/><rect fill="#FFFFFF" height="10" style="stroke:#111111;stroke-width:0.5;" width="15" x="1728.9038" y="434.5986"/><rect fill="#FFFFFF" height="2" style="stroke:#111111;stroke-width:0.5;" width="4" x="1726.9038" y="436.5986"/><rect fill="#FFFFFF" height="2" style="stroke:#111111;stroke-width:0.5;" width="4" x="1726.9038" y="440.5986"/><text fill="#000000" font-family="'Arial'" font-size="11" lengthAdjust="spacing" textLength="65.4038" x="1658.5" y="459.9165">Email service</text></g><!--link Sources to Import--><g class="link" data-entity-1="ent0002" data-entity-2="ent0019" data-link-type="dependency" data-source-line="60" id="lnk30"><path d="M526.1649,280.7419 C526.263,280.888 526.362,281.0352 526.4617,281.1835 C528.0571,283.557 529.8465,286.2191 531.8022,289.1286 C539.625,300.7668 550.1088,316.3636 561.48,333.2811 C584.2225,367.1161 607.1683,401.2537 622.8233,424.5487" fill="none" id="Sources-to-Import" style="stroke:#181818;stroke-width:1;"/><polygon fill="#181818" points="626.17,429.5286,624.4699,419.8276,623.3811,425.3787,617.83,424.2899,626.17,429.5286" style="stroke:#181818;stroke-width:1;"/><text fill="#000000" font-family="'Arial'" font-size="11" lengthAdjust="spacing" textLength="86.7485" x="602.8999" y="354.4165">d&#7919; li&#7879;u &#273;&#417;n h&#224;ng,</text><text fill="#000000" font-family="'Arial'" font-size="11" lengthAdjust="spacing" textLength="126.5483" x="583" y="367.0654">tracking, payment, market</text></g><!--link Import to Staging--><g class="link" data-entity-1="ent0019" data-entity-2="ent0024" data-link-type="dependency" data-source-line="61" id="lnk31"><path d="M604.24,472.7486 C573.21,493.2886 536.52,525.6786 559,553.5986 C593.06,595.8986 743.1224,614.5107 829.3424,621.9807" fill="none" id="Import-to-Staging" style="stroke:#181818;stroke-width:1;"/><polygon fill="#181818" points="835.32,622.4986,826.6989,617.7367,830.3387,622.0671,826.0083,625.7069,835.32,622.4986" style="stroke:#181818;stroke-width:1;"/><text fill="#000000" font-family="'Arial'" font-size="11" lengthAdjust="spacing" textLength="77.623" x="560" y="544.4165">raw/import rows</text></g><!--link Import to Public--><g class="link" data-entity-1="ent0019" data-entity-2="ent0023" data-link-type="dependency" data-source-line="62" id="lnk32"><path d="M648.92,472.9286 C660.6,497.2486 683.59,536.3386 717,553.5986 C741.79,566.4086 942.31,550.7086 968,561.5986 C987.25,569.7586 1000.2566,581.5996 1012.2466,595.9096" fill="none" id="Import-to-Public" style="stroke:#181818;stroke-width:1;"/><polygon fill="#181818" points="1016.1,600.5086,1013.3859,591.0411,1012.8888,596.6761,1007.2538,596.179,1016.1,600.5086" style="stroke:#181818;stroke-width:1;"/><text fill="#000000" font-family="'Arial'" font-size="11" lengthAdjust="spacing" textLength="81.3345" x="718" y="544.4165">upsert nghi&#7879;p v&#7909;</text></g><!--link Etl to Public--><g class="link" data-entity-1="ent0020" data-entity-2="ent0023" data-link-type="dependency" data-source-line="63" id="lnk33"><path d="M801.62,472.8386 C800.21,496.3186 802.1,533.8586 825,553.5986 C837.05,563.9886 953.42,555.2086 968,561.5986 C987,569.9286 999.8725,581.5999 1011.8725,595.7699" fill="none" id="Etl-to-Public" style="stroke:#181818;stroke-width:1;"/><polygon fill="#181818" points="1015.75,600.3486,1012.9862,590.8955,1012.5187,596.533,1006.8812,596.0656,1015.75,600.3486" style="stroke:#181818;stroke-width:1;"/><text fill="#000000" font-family="'Arial'" font-size="11" lengthAdjust="spacing" textLength="49.5215" x="826" y="544.4165">&#273;&#7885;c OLTP</text></g><!--link Etl to Dw--><g class="link" data-entity-1="ent0020" data-entity-2="ent0025" data-link-type="dependency" data-source-line="64" id="lnk34"><path d="M822.37,472.8786 C837.48,488.4286 860.37,508.6586 885,518.5986 C926.35,535.2886 941.55,516.5886 985,526.5986 C1017.09,533.9886 1022.25,544.8486 1054,553.5986 C1074.85,559.3486 1082.23,552.8286 1102,561.5986 C1122.92,570.8886 1138.6709,582.742 1153.7809,596.482" fill="none" id="Etl-to-Dw" style="stroke:#181818;stroke-width:1;"/><polygon fill="#181818" points="1158.22,600.5186,1154.2524,591.5043,1154.5207,597.1548,1148.8703,597.4231,1158.22,600.5186" style="stroke:#181818;stroke-width:1;"/><text fill="#000000" font-family="'Arial'" font-size="11" lengthAdjust="spacing" textLength="81.3184" x="1055" y="544.4165">n&#7841;p star schema</text></g><!--link Web to Backend--><g class="link" data-entity-1="ent0009" data-entity-2="ent0011" data-link-type="dependency" data-source-line="66" id="lnk35"><path d="M638.84,118.2886 C645.73,131.4286 654.86,148.7786 663,164.0986 C674.75,186.2136 688.0225,210.9536 698.585,230.5874 C701.2256,235.4958 703.6969,240.0851 705.9326,244.2345 C707.0505,246.3092 708.1095,248.2738 709.1013,250.1134 C709.3493,250.5734 706.7453,245.7443 706.9847,246.1884" fill="none" id="Web-to-Backend" style="stroke:#181818;stroke-width:1;"/><polygon fill="#181818" points="709.8325,251.4695,709.0815,241.6493,707.4593,247.0685,702.0401,245.4463,709.8325,251.4695" style="stroke:#181818;stroke-width:1;"/><text fill="#000000" font-family="'Arial'" font-size="11" lengthAdjust="spacing" textLength="68.4492" x="664" y="161.4165">REST/HTTPS</text></g><!--link Mobile to Backend--><g class="link" data-entity-1="ent0010" data-entity-2="ent0011" data-link-type="dependency" data-source-line="67" id="lnk36"><path d="M774.56,118.3186 C761.85,132.3686 746.22,151.9886 737,172.0986 C734.8375,176.8136 732.9202,181.7724 731.2203,186.8467 C731.1141,187.1639 732.8825,181.7816 732.778,182.0996" fill="none" id="Mobile-to-Backend" style="stroke:#181818;stroke-width:1;"/><polygon fill="#181818" points="730.9041,187.7995,737.5148,180.4989,732.4657,183.0496,729.915,178.0004,730.9041,187.7995" style="stroke:#181818;stroke-width:1;"/><text fill="#000000" font-family="'Arial'" font-size="11" lengthAdjust="spacing" textLength="68.4492" x="749" y="161.4165">REST/HTTPS</text></g><!--link Auth to Public--><g class="link" data-entity-1="ent0012" data-entity-2="ent0023" data-link-type="dependency" data-source-line="69" id="lnk37"><path d="M1145.67,295.2486 C1147.3,346.8586 1142.82,460.4386 1078,518.5986 C1060.27,534.5086 1040.54,508.5386 1025,526.5986 C1007.7,546.6986 1012.3605,572.5717 1020.7205,594.8317" fill="none" id="Auth-to-Public" style="stroke:#181818;stroke-width:1;"/><polygon fill="#181818" points="1022.83,600.4486,1023.4104,590.6169,1021.0721,595.7679,1015.9211,593.4296,1022.83,600.4486" style="stroke:#181818;stroke-width:1;"/></g><!--link Business to Public--><g class="link" data-entity-1="ent0014" data-entity-2="ent0023" data-link-type="dependency" data-source-line="70" id="lnk38"><path d="M1460.3,295.2686 C1435.87,350.7486 1379.92,476.9086 1358,518.5986 C1349.56,534.6586 1352.63,544.3886 1337,553.5986 C1314.49,566.8586 1126.04,551.3686 1102,561.5986 C1082.76,569.7786 1069.7569,581.6225 1057.7569,595.9225" fill="none" id="Business-to-Public" style="stroke:#181818;stroke-width:1;"/><polygon fill="#181818" points="1053.9,600.5186,1062.7494,596.1957,1057.1141,596.6885,1056.6213,591.0532,1053.9,600.5186" style="stroke:#181818;stroke-width:1;"/></g><!--link Business to Dw--><g class="link" data-entity-1="ent0014" data-entity-2="ent0025" data-link-type="dependency" data-source-line="71" id="lnk39"><path d="M1496.58,295.4886 C1513.86,316.3286 1535.53,346.8286 1545,378.0986 C1563.1,437.8686 1582.29,468.5186 1545,518.5986 C1509.5,566.2786 1348.3553,599.694 1254.4453,615.644" fill="none" id="Business-to-Dw" style="stroke:#181818;stroke-width:1;"/><polygon fill="#181818" points="1248.53,616.6486,1258.0727,619.0851,1253.4594,615.8114,1256.7331,611.1981,1248.53,616.6486" style="stroke:#181818;stroke-width:1;"/></g><!--link Dashboard to Dw--><g class="link" data-entity-1="ent0013" data-entity-2="ent0025" data-link-type="dependency" data-source-line="72" id="lnk40"><path d="M1316.38,289.2286 C1349.21,339.0886 1422.55,468.3386 1365,553.5986 C1339.13,591.9386 1295.2495,608.8942 1254.4495,617.5442" fill="none" id="Dashboard-to-Dw" style="stroke:#181818;stroke-width:1;"/><polygon fill="#181818" points="1248.58,618.7886,1258.2139,620.8351,1253.4713,617.7516,1256.5547,613.009,1248.58,618.7886" style="stroke:#181818;stroke-width:1;"/></g><!--link Dashboard to Public--><g class="link" data-entity-1="ent0013" data-entity-2="ent0023" data-link-type="dependency" data-source-line="73" id="lnk41"><path d="M1310.37,289.3186 C1330,341.6986 1372.28,480.4586 1302,553.5986 C1286.59,569.6386 1122.44,552.8286 1102,561.5986 C1082.79,569.8386 1069.7801,581.6852 1057.7801,595.9652" fill="none" id="Dashboard-to-Public" style="stroke:#181818;stroke-width:1;"/><polygon fill="#181818" points="1053.92,600.5586,1062.7724,596.2418,1057.1367,596.7307,1056.6478,591.0951,1053.92,600.5586" style="stroke:#181818;stroke-width:1;"/></g><!--link Sync to Etl--><g class="link" data-entity-1="ent0015" data-entity-2="ent0020" data-link-type="dependency" data-source-line="74" id="lnk42"><path d="M828.79,289.4186 C823.39,324.4286 813.4657,388.7489 808.0857,423.5889" fill="none" id="Sync-to-Etl" style="stroke:#181818;stroke-width:1;"/><polygon fill="#181818" points="807.17,429.5186,812.4966,421.2345,807.9331,424.5772,804.5904,420.0136,807.17,429.5186" style="stroke:#181818;stroke-width:1;"/></g><!--link Sync to AiService--><g class="link" data-entity-1="ent0015" data-entity-2="ent0021" data-link-type="dependency" data-source-line="75" id="lnk43"><path d="M843.06,289.4886 C854.8,310.7886 874.6,344.2786 896,370.0986 C909.79,386.7386 922.4389,399.3174 937.7589,413.0274" fill="none" id="Sync-to-AiService" style="stroke:#181818;stroke-width:1;"/><polygon fill="#181818" points="942.23,417.0286,938.1909,408.0461,938.5041,413.6943,932.8559,414.0076,942.23,417.0286" style="stroke:#181818;stroke-width:1;"/><text fill="#000000" font-family="'Arial'" font-size="11" lengthAdjust="spacing" textLength="84.9976" x="897" y="354.4165">invalidate cache /</text><text fill="#000000" font-family="'Arial'" font-size="11" lengthAdjust="spacing" textLength="78.2354" x="900.3811" y="367.0654">trigger DW sync</text></g><!--link AiCtrl to AiService--><g class="link" data-entity-1="ent0016" data-entity-2="ent0021" data-link-type="dependency" data-source-line="76" id="lnk44"><path d="M997.34,295.3786 C994.14,327.7186 989.3314,376.1479 985.8714,411.0779" fill="none" id="AiCtrl-to-AiService" style="stroke:#181818;stroke-width:1;"/><polygon fill="#181818" points="985.28,417.0486,990.1477,408.4868,985.7729,412.073,982.1866,407.6982,985.28,417.0486" style="stroke:#181818;stroke-width:1;"/></g><!--link Chatbot to Public--><g class="link" data-entity-1="ent0017" data-entity-2="ent0023" data-link-type="dependency" data-source-line="77" id="lnk45"><path d="M1617.31,295.2286 C1567.58,361.4886 1436.28,530.1086 1371,553.5986 C1342.86,563.7186 1129.54,549.9586 1102,561.5986 C1082.74,569.7386 1069.7334,581.5796 1057.7434,595.8896" fill="none" id="Chatbot-to-Public" style="stroke:#181818;stroke-width:1;"/><polygon fill="#181818" points="1053.89,600.4886,1062.7362,596.159,1057.1012,596.6561,1056.6041,591.0211,1053.89,600.4886" style="stroke:#181818;stroke-width:1;"/><text fill="#000000" font-family="'Arial'" font-size="11" lengthAdjust="spacing" textLength="62.3638" x="1552.4438" y="448.9165">chat_history,</text><text fill="#000000" font-family="'Arial'" font-size="11" lengthAdjust="spacing" textLength="67.2515" x="1550" y="461.5654">OLTP context</text></g><!--link Chatbot to Dw--><g class="link" data-entity-1="ent0017" data-entity-2="ent0025" data-link-type="dependency" data-source-line="78" id="lnk46"><path d="M1700.39,275.8986 C1805.88,289.5086 2010.14,322.4986 2053,378.0986 C2091.12,427.5586 2094.34,471.7986 2053,518.5986 C1999.78,578.8386 1447.3417,612.9428 1254.8117,623.0928" fill="none" id="Chatbot-to-Dw" style="stroke:#181818;stroke-width:1;"/><polygon fill="#181818" points="1248.82,623.4086,1258.0181,626.9293,1253.8131,623.1454,1257.5969,618.9404,1248.82,623.4086" style="stroke:#181818;stroke-width:1;"/><text fill="#000000" font-family="'Arial'" font-size="11" lengthAdjust="spacing" textLength="81.936" x="2083" y="455.4165">business context</text></g><!--link Chatbot to Gemini--><g class="link" data-entity-1="ent0017" data-entity-2="ent0027" data-link-type="dependency" data-source-line="79" id="lnk47"><path d="M1669.6,295.2286 C1696,317.0386 1733.94,348.9486 1766,378.0986 C1784.57,394.9786 1800.7087,410.6947 1815.3787,425.3047" fill="none" id="Chatbot-to-Gemini" style="stroke:#181818;stroke-width:1;"/><polygon fill="#181818" points="1819.63,429.5386,1816.0756,420.3535,1816.0872,426.0104,1810.4304,426.0219,1819.63,429.5386" style="stroke:#181818;stroke-width:1;"/></g><!--link Chatbot to Groq--><g class="link" data-entity-1="ent0017" data-entity-2="ent0028" data-link-type="dependency" data-source-line="80" id="lnk48"><path d="M1700.05,285.1886 C1758.7,302.4786 1846.88,333.3486 1914,378.0986 C1935.18,392.2186 1951.1418,409.0285 1964.2418,424.8385" fill="none" id="Chatbot-to-Groq" style="stroke:#181818;stroke-width:1;"/><polygon fill="#181818" points="1968.07,429.4586,1965.4078,419.9764,1964.8799,425.6086,1959.2477,425.0806,1968.07,429.4586" style="stroke:#181818;stroke-width:1;"/></g><!--link Business to Email--><g class="link" data-entity-1="ent0014" data-entity-2="ent0029" data-link-type="dependency" data-source-line="81" id="lnk49"><path d="M1505.71,295.3986 C1521.24,307.6286 1539.96,322.2286 1557,335.0986 C1582.89,354.6586 1590.8,357.6586 1616,378.0986 C1636.32,394.5786 1653.9553,410.4629 1669.7353,425.2029" fill="none" id="Business-to-Email" style="stroke:#181818;stroke-width:1;"/><polygon fill="#181818" points="1674.12,429.2986,1670.2735,420.232,1670.4661,425.8856,1664.8125,426.0782,1674.12,429.2986" style="stroke:#181818;stroke-width:1;"/></g><!--link Business to Vnpay--><g class="link" data-entity-1="ent0014" data-entity-2="ent0006" data-link-type="dependency" data-source-line="82" id="lnk50"><path d="M1457.16,240.0186 C1440.4,212.3486 1410.2,171.7886 1370.5,157.0986 C1325.38,140.4086 549.62,140.4086 504.5,157.0986 C465.38,171.5686 443.8808,212.3247 432.7808,240.1847" fill="none" id="Business-to-Vnpay" style="stroke:#181818;stroke-width:1;"/><polygon fill="#181818" points="430.56,245.7586,437.6071,238.8783,432.4106,241.1137,430.1752,235.9173,430.56,245.7586" style="stroke:#181818;stroke-width:1;"/></g><!--link AiService to Public--><g class="link" data-entity-1="ent0021" data-entity-2="ent0023" data-link-type="dependency" data-source-line="84" id="lnk51"><path d="M923.17,485.1186 C895.04,505.0286 871.52,530.8486 892,553.5986 C903.36,566.2186 952.62,554.3986 968,561.5986 C986.64,570.3186 999.3648,581.8421 1011.3948,595.8121" fill="none" id="AiService-to-Public" style="stroke:#181818;stroke-width:1;"/><polygon fill="#181818" points="1015.31,600.3586,1012.4683,590.9287,1012.0473,596.5698,1006.4062,596.1489,1015.31,600.3586" style="stroke:#181818;stroke-width:1;"/><text fill="#000000" font-family="'Arial'" font-size="11" lengthAdjust="spacing" textLength="60.5107" x="904.3223" y="537.9165">RFM, churn,</text><text fill="#000000" font-family="'Arial'" font-size="11" lengthAdjust="spacing" textLength="83.1553" x="893" y="550.5654">inventory context</text></g><!--link AiService to Dw--><g class="link" data-entity-1="ent0021" data-entity-2="ent0025" data-link-type="dependency" data-source-line="85" id="lnk52"><path d="M1062.23,474.6586 C1091.41,486.2086 1122.67,502.9586 1145,526.5986 C1164.32,547.0486 1173.0873,572.3185 1178.1173,594.3985" fill="none" id="AiService-to-Dw" style="stroke:#181818;stroke-width:1;"/><polygon fill="#181818" points="1179.45,600.2486,1181.351,590.585,1178.3394,595.3735,1173.5509,592.3619,1179.45,600.2486" style="stroke:#181818;stroke-width:1;"/><text fill="#000000" font-family="'Arial'" font-size="11" lengthAdjust="spacing" textLength="89.8745" x="1183.1926" y="537.9165">forecast, anomaly,</text><text fill="#000000" font-family="'Arial'" font-size="11" lengthAdjust="spacing" textLength="130.2598" x="1163" y="550.5654">leaderboard, dashboard AI</text></g><?plantuml-src fLMzRkD64Exv50EbZ7oAYqEGAmB8-l4viNKwKR0R0i5okIONfdPvkqlBkaFg5C4LXo3z6K7A8BrKfF0Xxy4toUmk9PEChqbKYEBCD_ypdmmtEOFlURNzIu1H3riAfjhzAb9uKpxS6xW8Xo4SmKcr_Kq0hRP_520oV9WWq3TS54IH5Qoaa3HJSiNGHSaQ6fsHHAuvkhickMvg4dPDojnCfJ0pWeQzeU8axpsD2FbR1iV73QLYr12HOkxl0e0JGczI9KkHZ6Gk5NmnTH-haIfXgfOUkq_mOyCFbQj22YRC__IJ44DYelzREi5ZDRrPMbQxNmGarUvFo7cr-wa4aSg7Zxm7H4CeIqMPTc4US--5cImOWm6SaxSa8J28n9BVBEKDM8spl23gXfaY9sZUDXw5bsWvkQCi1uvIPPp1ID-sSQSlPqvncecsud8s9njqSScPURrmc4liowQDccBaM69A0pYL4ekDXAQA54pvolplJZkc2iVFHE8W-vTkzGj6g84lCRvXSCLY1yRdKwWPCVoMkNeBwHiZOvwpJbmxGXjfE3-Bn32SFvjDbZ2IYc6OxwwM-Bqu6OxmiMI223EoYTtvlkrDEqaEIvDXs66ouiBE9onZB9yNXalXx2oWRJ8cEeibKGdQBTXXC0Tn6_tAhfP6w5p9fAH6soXduXQLKjdnJ3ccIfbFijHSCAsx0Gq9DuBQzYpFiJE2ewqV3uex1N5RjP9vpbGafaGRR1OKIjvjV3ryP5JUMRMCc5YQfk4fmuRmaAbRNkTMWpeJcMzC9WNKGEsGjQpJwJEtmpWR8TMAvCWT3kp5RQYjyjNvSWv7tyBuoi4c9k_khQziUBOF7ebht0IAyZuG8J76fW-BwKK_4ZGhbUW3KW4UMn_ullrrHse7tTAaDgbYuUjpEFxQ5vQweWwiqYlAEESq4ZvPUFuSOal9gKSxPGkl3KcHTYEXo7hWZnhDlcbQXHxICalMU9I6AD0qOok29iTVDMt6wqxgushtCytWjjhztgIfoPrXIf2yEnf_-E1dxid4_UoWb7nZ_p3o64_9er3IcToAy1nqOssSnAQtvyWZ76gz2ozQVFhfmz_t0hA7ZoB5aHc5KR0HVK3AMg7pFgmSLmQriVLJDmiTDHggv5etGNuEY2aBJCnWGp8Ri73j2N2nsgXF7whTU-hsxw0Shr4Xgkrz0Oqv106ocTFloUK5B2RXSl1okPo7WMUmp-i3npsFiOFzzNzMXdD-99yd1RMLOmlxRi_cy79OTCm3Jm1l45UC0ILOZMKbetYQCeKd1zhoYgUAjcbGqq2xPnI5FsHSsvlgr-T0FVcs35mVutr9Jo7gnMk9x9Qr-k1tgYNo_sp1Oucj_2mBW2U1I1ok_v10syeb-MygYKJE27AvQtOVhtFVz-5Py0y0?></g></svg>