<?plantuml 1.2026.2?><svg xmlns="http://www.w3.org/2000/svg" xmlns:xlink="http://www.w3.org/1999/xlink" contentStyleType="text/css" data-diagram-type="SEQUENCE" height="1511px" preserveAspectRatio="none" style="width:1866px;height:1511px;background:#FFFFFF;" version="1.1" viewBox="0 0 1866 1511" width="1866px" zoomAndPan="magnify"><title>SEQ 12 - Lu&#7891;ng x&#7917; l&#253; Chatbot AI</title><defs/><g><text fill="#000000" font-family="'Arial'" font-size="14" font-weight="bold" lengthAdjust="spacing" textLength="216.2617" x="826.3282" y="28.1318">SEQ 12 - Lu&#7891;ng x&#7917; l&#253; Chatbot AI</text><g><title>ChatbotController</title><rect fill="#FFFFFF" height="1177.7441" style="stroke:#181818;stroke-width:1;" width="10" x="661.3027" y="182.6943"/></g><g><title>GeminiService</title><rect fill="#FFFFFF" height="831.0103" style="stroke:#181818;stroke-width:1;" width="10" x="920.7671" y="436.8325"/></g><rect fill="none" height="134.8936" style="stroke:#000000;stroke-width:1.5;" width="610.7158" x="606.197" y="263.6411"/><rect fill="none" height="363.0317" style="stroke:#000000;stroke-width:1.5;" width="653.2322" x="873.0063" y="504.1304"/><rect fill="none" height="283.436" style="stroke:#000000;stroke-width:1.5;" width="986.9119" x="873.0063" y="933.46"/><g class="participant-lifeline" data-entity-uid="part1" data-qualified-name="User" id="part1-lifeline"><g><title>Ng..i d.ng</title><rect fill="#000000" fill-opacity="0.00000" height="1308.9888" width="8" x="392.3047" y="114.7476"/><line style="stroke:#666666;stroke-width:0.5;stroke-dasharray:5,5;" x1="396" x2="396" y1="114.7476" y2="1423.7363"/></g></g><g class="participant-lifeline" data-entity-uid="part2" data-qualified-name="FE" id="part2-lifeline"><g><title>Frontend</title><rect fill="#000000" fill-opacity="0.00000" height="1308.9888" width="8" x="524.5752" y="114.7476"/><line style="stroke:#666666;stroke-width:0.5;stroke-dasharray:5,5;" x1="528.2837" x2="528.2837" y1="114.7476" y2="1423.7363"/></g></g><g class="participant-lifeline" data-entity-uid="part3" data-qualified-name="Ctrl" id="part3-lifeline"><g><title>ChatbotController</title><rect fill="#000000" fill-opacity="0.00000" height="1308.9888" width="8" x="662.3027" y="114.7476"/><line style="stroke:#666666;stroke-width:0.5;stroke-dasharray:5,5;" x1="666.197" x2="666.197" y1="114.7476" y2="1423.7363"/></g></g><g class="participant-lifeline" data-entity-uid="part4" data-qualified-name="Tenant" id="part4-lifeline"><g><title>TenantContext</title><rect fill="#000000" fill-opacity="0.00000" height="1308.9888" width="8" x="825.9287" y="114.7476"/><line style="stroke:#666666;stroke-width:0.5;stroke-dasharray:5,5;" x1="829.8511" x2="829.8511" y1="114.7476" y2="1423.7363"/></g></g><g class="participant-lifeline" data-entity-uid="part5" data-qualified-name="GeminiSvc" id="part5-lifeline"><g><title>GeminiService</title><rect fill="#000000" fill-opacity="0.00000" height="1308.9888" width="8" x="921.7671" y="114.7476"/><line style="stroke:#666666;stroke-width:0.5;stroke-dasharray:5,5;" x1="925.0063" x2="925.0063" y1="114.7476" y2="1423.7363"/></g></g><g class="participant-lifeline" data-entity-uid="part6" data-qualified-name="OLTP" id="part6-lifeline"><g><title>PostgreSQL public</title><rect fill="#000000" fill-opacity="0.00000" height="1308.9888" width="8" x="1149.626" y="114.7476"/><line style="stroke:#666666;stroke-width:0.5;stroke-dasharray:5,5;" x1="1153.3391" x2="1153.3391" y1="114.7476" y2="1423.7363"/></g></g><g class="participant-lifeline" data-entity-uid="part7" data-qualified-name="DW" id="part7-lifeline"><g><title>PostgreSQL dw</title><rect fill="#000000" fill-opacity="0.00000" height="1308.9888" width="8" x="1261.6155" y="114.7476"/><line style="stroke:#666666;stroke-width:0.5;stroke-dasharray:5,5;" x1="1264.9128" x2="1264.9128" y1="114.7476" y2="1423.7363"/></g></g><g class="participant-lifeline" data-entity-uid="part8" data-qualified-name="Raw" id="part8-lifeline"><g><title>Raw.Scraper data</title><rect fill="#000000" fill-opacity="0.00000" height="1308.9888" width="8" x="1416.2783" y="114.7476"/><line style="stroke:#666666;stroke-width:0.5;stroke-dasharray:5,5;" x1="1419.3181" x2="1419.3181" y1="114.7476" y2="1423.7363"/></g></g><g class="participant-lifeline" data-entity-uid="part9" data-qualified-name="Gemini" id="part9-lifeline"><g><title>Google Gemini API</title><rect fill="#000000" fill-opacity="0.00000" height="1308.9888" width="8" x="1576.3162" y="114.7476"/><line style="stroke:#666666;stroke-width:0.5;stroke-dasharray:5,5;" x1="1580.2385" x2="1580.2385" y1="114.7476" y2="1423.7363"/></g></g><g class="participant-lifeline" data-entity-uid="part10" data-qualified-name="Groq" id="part10-lifeline"><g><title>Groq API</title><rect fill="#000000" fill-opacity="0.00000" height="1308.9888" width="8" x="1670.0142" y="114.7476"/><line style="stroke:#666666;stroke-width:0.5;stroke-dasharray:5,5;" x1="1673.3938" x2="1673.3938" y1="114.7476" y2="1423.7363"/></g></g><g class="participant-lifeline" data-entity-uid="part11" data-qualified-name="FastAPI" id="part11-lifeline"><g><title>FastAPI AI Service</title><rect fill="#000000" fill-opacity="0.00000" height="1308.9888" width="8" x="1777.7764" y="114.7476"/><line style="stroke:#666666;stroke-width:0.5;stroke-dasharray:5,5;" x1="1781.6345" x2="1781.6345" y1="114.7476" y2="1423.7363"/></g></g><g class="participant participant-head" data-entity-uid="part1" data-qualified-name="User" id="part1-head"><text fill="#000000" font-family="'Arial'" font-size="11" lengthAdjust="spacing" textLength="58.6094" x="364" y="112.4165">Ng&#432;&#7901;i d&#249;ng</text><ellipse cx="396.3047" cy="50.5986" fill="#E3E3E3" rx="8" ry="8" style="stroke:#111111;stroke-width:0.5;"/><path d="M396.3047,58.5986 L396.3047,85.5986 M383.3047,66.5986 L409.3047,66.5986 M396.3047,85.5986 L383.3047,100.5986 M396.3047,85.5986 L409.3047,100.5986" fill="none" style="stroke:#111111;stroke-width:0.5;"/></g><g class="participant participant-tail" data-entity-uid="part1" data-qualified-name="User" id="part1-tail"><text fill="#000000" font-family="'Arial'" font-size="11" lengthAdjust="spacing" textLength="58.6094" x="364" y="1433.0542">Ng&#432;&#7901;i d&#249;ng</text><ellipse cx="396.3047" cy="1443.8853" fill="#E3E3E3" rx="8" ry="8" style="stroke:#111111;stroke-width:0.5;"/><path d="M396.3047,1451.8853 L396.3047,1478.8853 M383.3047,1459.8853 L409.3047,1459.8853 M396.3047,1478.8853 L383.3047,1493.8853 M396.3047,1478.8853 L409.3047,1493.8853" fill="none" style="stroke:#111111;stroke-width:0.5;"/></g><g class="participant participant-head" data-entity-uid="part2" data-qualified-name="FE" id="part2-head"><rect fill="#FFFFFF" height="39.2979" rx="2.5" ry="2.5" style="stroke:#111111;stroke-width:0.5;" width="66.583" x="495.2837" y="74.4497"/><text fill="#000000" font-family="'Arial'" font-size="11" lengthAdjust="spacing" textLength="44.0269" x="506.5618" y="91.7676">Frontend</text><text fill="#000000" font-family="'Arial'" font-size="11" lengthAdjust="spacing" textLength="52.583" x="502.2837" y="104.4165">Chatbot UI</text></g><g class="participant participant-tail" data-entity-uid="part2" data-qualified-name="FE" id="part2-tail"><rect fill="#FFFFFF" height="39.2979" rx="2.5" ry="2.5" style="stroke:#111111;stroke-width:0.5;" width="66.583" x="495.2837" y="1422.7363"/><text fill="#000000" font-family="'Arial'" font-size="11" lengthAdjust="spacing" textLength="44.0269" x="506.5618" y="1440.0542">Frontend</text><text fill="#000000" font-family="'Arial'" font-size="11" lengthAdjust="spacing" textLength="52.583" x="502.2837" y="1452.7031">Chatbot UI</text></g><g class="participant participant-head" data-entity-uid="part3" data-qualified-name="Ctrl" id="part3-head"><rect fill="#FFFFFF" height="39.2979" rx="2.5" ry="2.5" style="stroke:#111111;stroke-width:0.5;" width="100.2114" x="616.197" y="74.4497"/><text fill="#000000" font-family="'Arial'" font-size="11" lengthAdjust="spacing" textLength="86.2114" x="623.197" y="91.7676">ChatbotController</text><text fill="#000000" font-family="'Arial'" font-size="11" lengthAdjust="spacing" textLength="56.8745" x="637.8655" y="104.4165">/api/chatbot</text></g><g class="participant participant-tail" data-entity-uid="part3" data-qualified-name="Ctrl" id="part3-tail"><rect fill="#FFFFFF" height="39.2979" rx="2.5" ry="2.5" style="stroke:#111111;stroke-width:0.5;" width="100.2114" x="616.197" y="1422.7363"/><text fill="#000000" font-family="'Arial'" font-size="11" lengthAdjust="spacing" textLength="86.2114" x="623.197" y="1440.0542">ChatbotController</text><text fill="#000000" font-family="'Arial'" font-size="11" lengthAdjust="spacing" textLength="56.8745" x="637.8655" y="1452.7031">/api/chatbot</text></g><g class="participant participant-head" data-entity-uid="part4" data-qualified-name="Tenant" id="part4-head"><rect fill="#FFFFFF" height="39.2979" rx="2.5" ry="2.5" style="stroke:#111111;stroke-width:0.5;" width="86.1553" x="786.8511" y="74.4497"/><text fill="#000000" font-family="'Arial'" font-size="11" lengthAdjust="spacing" textLength="72.1553" x="793.8511" y="91.7676">TenantContext</text><text fill="#000000" font-family="'Arial'" font-size="11" lengthAdjust="spacing" textLength="56.8262" x="801.5156" y="104.4165">JWT claims</text></g><g class="participant participant-tail" data-entity-uid="part4" data-qualified-name="Tenant" id="part4-tail"><rect fill="#FFFFFF" height="39.2979" rx="2.5" ry="2.5" style="stroke:#111111;stroke-width:0.5;" width="86.1553" x="786.8511" y="1422.7363"/><text fill="#000000" font-family="'Arial'" font-size="11" lengthAdjust="spacing" textLength="72.1553" x="793.8511" y="1440.0542">TenantContext</text><text fill="#000000" font-family="'Arial'" font-size="11" lengthAdjust="spacing" textLength="56.8262" x="801.5156" y="1452.7031">JWT claims</text></g><g class="participant participant-head" data-entity-uid="part5" data-qualified-name="GeminiSvc" id="part5-head"><rect fill="#FFFFFF" height="26.6489" rx="2.5" ry="2.5" style="stroke:#111111;stroke-width:0.5;" width="85.5215" x="883.0063" y="87.0986"/><text fill="#000000" font-family="'Arial'" font-size="11" lengthAdjust="spacing" textLength="71.5215" x="890.0063" y="104.4165">GeminiService</text></g><g class="participant participant-tail" data-entity-uid="part5" data-qualified-name="GeminiSvc" id="part5-tail"><rect fill="#FFFFFF" height="26.6489" rx="2.5" ry="2.5" style="stroke:#111111;stroke-width:0.5;" width="85.5215" x="883.0063" y="1422.7363"/><text fill="#000000" font-family="'Arial'" font-size="11" lengthAdjust="spacing" textLength="71.5215" x="890.0063" y="1440.0542">GeminiService</text></g><g class="participant participant-head" data-entity-uid="part6" data-qualified-name="OLTP" id="part6-head"><text fill="#000000" font-family="'Arial'" font-size="11" lengthAdjust="spacing" textLength="91.7168" x="1104.7676" y="99.7676">PostgreSQL public</text><text fill="#000000" font-family="'Arial'" font-size="11" lengthAdjust="spacing" textLength="100.5737" x="1100.3391" y="112.4165">chat_history + OLTP</text><path d="M1135.626,53.4497 C1135.626,43.4497 1153.626,43.4497 1153.626,43.4497 C1153.626,43.4497 1171.626,43.4497 1171.626,53.4497 L1171.626,79.4497 C1171.626,89.4497 1153.626,89.4497 1153.626,89.4497 C1153.626,89.4497 1135.626,89.4497 1135.626,79.4497 L1135.626,53.4497" fill="#E3E3E3" style="stroke:#181818;stroke-width:0.5;"/><path d="M1135.626,53.4497 C1135.626,63.4497 1153.626,63.4497 1153.626,63.4497 C1153.626,63.4497 1171.626,63.4497 1171.626,53.4497" fill="none" style="stroke:#181818;stroke-width:0.5;"/></g><g class="participant participant-tail" data-entity-uid="part6" data-qualified-name="OLTP" id="part6-tail"><text fill="#000000" font-family="'Arial'" font-size="11" lengthAdjust="spacing" textLength="91.7168" x="1104.7676" y="1433.0542">PostgreSQL public</text><text fill="#000000" font-family="'Arial'" font-size="11" lengthAdjust="spacing" textLength="100.5737" x="1100.3391" y="1445.7031">chat_history + OLTP</text><path d="M1135.626,1458.0342 C1135.626,1448.0342 1153.626,1448.0342 1153.626,1448.0342 C1153.626,1448.0342 1171.626,1448.0342 1171.626,1458.0342 L1171.626,1484.0342 C1171.626,1494.0342 1153.626,1494.0342 1153.626,1494.0342 C1153.626,1494.0342 1135.626,1494.0342 1135.626,1484.0342 L1135.626,1458.0342" fill="#E3E3E3" style="stroke:#181818;stroke-width:0.5;"/><path d="M1135.626,1458.0342 C1135.626,1468.0342 1153.626,1468.0342 1153.626,1468.0342 C1153.626,1468.0342 1171.626,1468.0342 1171.626,1458.0342" fill="none" style="stroke:#181818;stroke-width:0.5;"/></g><g class="participant participant-head" data-entity-uid="part7" data-qualified-name="DW" id="part7-head"><text fill="#000000" font-family="'Arial'" font-size="11" lengthAdjust="spacing" textLength="77.0376" x="1224.0967" y="99.7676">PostgreSQL dw</text><text fill="#000000" font-family="'Arial'" font-size="11" lengthAdjust="spacing" textLength="91.4053" x="1216.9128" y="112.4165">facts + dimensions</text><path d="M1247.6155,53.4497 C1247.6155,43.4497 1265.6155,43.4497 1265.6155,43.4497 C1265.6155,43.4497 1283.6155,43.4497 1283.6155,53.4497 L1283.6155,79.4497 C1283.6155,89.4497 1265.6155,89.4497 1265.6155,89.4497 C1265.6155,89.4497 1247.6155,89.4497 1247.6155,79.4497 L1247.6155,53.4497" fill="#E3E3E3" style="stroke:#181818;stroke-width:0.5;"/><path d="M1247.6155,53.4497 C1247.6155,63.4497 1265.6155,63.4497 1265.6155,63.4497 C1265.6155,63.4497 1283.6155,63.4497 1283.6155,53.4497" fill="none" style="stroke:#181818;stroke-width:0.5;"/></g><g class="participant participant-tail" data-entity-uid="part7" data-qualified-name="DW" id="part7-tail"><text fill="#000000" font-family="'Arial'" font-size="11" lengthAdjust="spacing" textLength="77.0376" x="1224.0967" y="1433.0542">PostgreSQL dw</text><text fill="#000000" font-family="'Arial'" font-size="11" lengthAdjust="spacing" textLength="91.4053" x="1216.9128" y="1445.7031">facts + dimensions</text><path d="M1247.6155,1458.0342 C1247.6155,1448.0342 1265.6155,1448.0342 1265.6155,1448.0342 C1265.6155,1448.0342 1283.6155,1448.0342 1283.6155,1458.0342 L1283.6155,1484.0342 C1283.6155,1494.0342 1265.6155,1494.0342 1265.6155,1494.0342 C1265.6155,1494.0342 1247.6155,1494.0342 1247.6155,1484.0342 L1247.6155,1458.0342" fill="#E3E3E3" style="stroke:#181818;stroke-width:0.5;"/><path d="M1247.6155,1458.0342 C1247.6155,1468.0342 1265.6155,1468.0342 1265.6155,1468.0342 C1265.6155,1468.0342 1283.6155,1468.0342 1283.6155,1458.0342" fill="none" style="stroke:#181818;stroke-width:0.5;"/></g><g class="participant participant-head" data-entity-uid="part8" data-qualified-name="Raw" id="part8-head"><text fill="#000000" font-family="'Arial'" font-size="11" lengthAdjust="spacing" textLength="88.043" x="1373.2568" y="99.7676">Raw/Scraper data</text><text fill="#000000" font-family="'Arial'" font-size="11" lengthAdjust="spacing" textLength="185.9204" x="1324.3181" y="112.4165">facebook_feedback, raw_google_data</text><path d="M1402.2783,53.4497 C1402.2783,43.4497 1420.2783,43.4497 1420.2783,43.4497 C1420.2783,43.4497 1438.2783,43.4497 1438.2783,53.4497 L1438.2783,79.4497 C1438.2783,89.4497 1420.2783,89.4497 1420.2783,89.4497 C1420.2783,89.4497 1402.2783,89.4497 1402.2783,79.4497 L1402.2783,53.4497" fill="#E3E3E3" style="stroke:#181818;stroke-width:0.5;"/><path d="M1402.2783,53.4497 C1402.2783,63.4497 1420.2783,63.4497 1420.2783,63.4497 C1420.2783,63.4497 1438.2783,63.4497 1438.2783,53.4497" fill="none" style="stroke:#181818;stroke-width:0.5;"/></g><g class="participant participant-tail" data-entity-uid="part8" data-qualified-name="Raw" id="part8-tail"><text fill="#000000" font-family="'Arial'" font-size="11" lengthAdjust="spacing" textLength="88.043" x="1373.2568" y="1433.0542">Raw/Scraper data</text><text fill="#000000" font-family="'Arial'" font-size="11" lengthAdjust="spacing" textLength="185.9204" x="1324.3181" y="1445.7031">facebook_feedback, raw_google_data</text><path d="M1402.2783,1458.0342 C1402.2783,1448.0342 1420.2783,1448.0342 1420.2783,1448.0342 C1420.2783,1448.0342 1438.2783,1448.0342 1438.2783,1458.0342 L1438.2783,1484.0342 C1438.2783,1494.0342 1420.2783,1494.0342 1420.2783,1494.0342 C1420.2783,1494.0342 1402.2783,1494.0342 1402.2783,1484.0342 L1402.2783,1458.0342" fill="#E3E3E3" style="stroke:#181818;stroke-width:0.5;"/><path d="M1402.2783,1458.0342 C1402.2783,1468.0342 1420.2783,1468.0342 1420.2783,1468.0342 C1420.2783,1468.0342 1438.2783,1468.0342 1438.2783,1458.0342" fill="none" style="stroke:#181818;stroke-width:0.5;"/></g><g class="participant participant-head" data-entity-uid="part9" data-qualified-name="Gemini" id="part9-head"><rect fill="#FFFFFF" height="26.6489" rx="2.5" ry="2.5" style="stroke:#111111;stroke-width:0.5;" width="108.1553" x="1526.2385" y="87.0986"/><text fill="#000000" font-family="'Arial'" font-size="11" lengthAdjust="spacing" textLength="94.1553" x="1533.2385" y="104.4165">Google Gemini API</text></g><g class="participant participant-tail" data-entity-uid="part9" data-qualified-name="Gemini" id="part9-tail"><rect fill="#FFFFFF" height="26.6489" rx="2.5" ry="2.5" style="stroke:#111111;stroke-width:0.5;" width="108.1553" x="1526.2385" y="1422.7363"/><text fill="#000000" font-family="'Arial'" font-size="11" lengthAdjust="spacing" textLength="94.1553" x="1533.2385" y="1440.0542">Google Gemini API</text></g><g class="participant participant-head" data-entity-uid="part10" data-qualified-name="Groq" id="part10-head"><rect fill="#FFFFFF" height="39.2979" rx="2.5" ry="2.5" style="stroke:#111111;stroke-width:0.5;" width="59.2407" x="1644.3938" y="74.4497"/><text fill="#000000" font-family="'Arial'" font-size="11" lengthAdjust="spacing" textLength="45.2407" x="1651.3938" y="91.7676">Groq API</text><text fill="#000000" font-family="'Arial'" font-size="11" lengthAdjust="spacing" textLength="37.2969" x="1655.3657" y="104.4165">fallback</text></g><g class="participant participant-tail" data-entity-uid="part10" data-qualified-name="Groq" id="part10-tail"><rect fill="#FFFFFF" height="39.2979" rx="2.5" ry="2.5" style="stroke:#111111;stroke-width:0.5;" width="59.2407" x="1644.3938" y="1422.7363"/><text fill="#000000" font-family="'Arial'" font-size="11" lengthAdjust="spacing" textLength="45.2407" x="1651.3938" y="1440.0542">Groq API</text><text fill="#000000" font-family="'Arial'" font-size="11" lengthAdjust="spacing" textLength="37.2969" x="1655.3657" y="1452.7031">fallback</text></g><g class="participant participant-head" data-entity-uid="part11" data-qualified-name="FastAPI" id="part11-head"><rect fill="#FFFFFF" height="39.2979" rx="2.5" ry="2.5" style="stroke:#111111;stroke-width:0.5;" width="136.2837" x="1713.6345" y="74.4497"/><text fill="#000000" font-family="'Arial'" font-size="11" lengthAdjust="spacing" textLength="92.3076" x="1735.6226" y="91.7676">FastAPI AI Service</text><text fill="#000000" font-family="'Arial'" font-size="11" lengthAdjust="spacing" textLength="122.2837" x="1720.6345" y="104.4165">fallback recommendation</text></g><g class="participant participant-tail" data-entity-uid="part11" data-qualified-name="FastAPI" id="part11-tail"><rect fill="#FFFFFF" height="39.2979" rx="2.5" ry="2.5" style="stroke:#111111;stroke-width:0.5;" width="136.2837" x="1713.6345" y="1422.7363"/><text fill="#000000" font-family="'Arial'" font-size="11" lengthAdjust="spacing" textLength="92.3076" x="1735.6226" y="1440.0542">FastAPI AI Service</text><text fill="#000000" font-family="'Arial'" font-size="11" lengthAdjust="spacing" textLength="122.2837" x="1720.6345" y="1452.7031">fallback recommendation</text></g><g><title>ChatbotController</title><rect fill="#FFFFFF" height="1177.7441" style="stroke:#181818;stroke-width:1;" width="10" x="661.3027" y="182.6943"/></g><g><title>GeminiService</title><rect fill="#FFFFFF" height="831.0103" style="stroke:#181818;stroke-width:1;" width="10" x="920.7671" y="436.8325"/></g><g class="message" data-entity-1="part1" data-entity-2="part2" id="msg1"><polygon fill="#111111" points="516.5752,139.3965,526.5752,143.3965,516.5752,147.3965,520.5752,143.3965" style="stroke:#111111;stroke-width:1;"/><line style="stroke:#111111;stroke-width:1;" x1="396.3047" x2="522.5752" y1="143.3965" y2="143.3965"/><text fill="#000000" font-family="'Arial'" font-size="11" lengthAdjust="spacing" textLength="108.2705" x="403.3047" y="139.0654">Nh&#7853;p c&#226;u h&#7887;i t&#7921; nhi&#234;n</text></g><g class="message" data-entity-1="part2" data-entity-2="part3" id="msg2"><polygon fill="#111111" points="649.3027,178.6943,659.3027,182.6943,649.3027,186.6943,653.3027,182.6943" style="stroke:#111111;stroke-width:1;"/><line style="stroke:#111111;stroke-width:1;" x1="528.5752" x2="655.3027" y1="182.6943" y2="182.6943"/><text fill="#000000" font-family="'Arial'" font-size="11" lengthAdjust="spacing" textLength="113.7275" x="535.5752" y="165.7144">POST /api/chatbot/chat</text><text fill="#000000" font-family="'Arial'" font-size="11" lengthAdjust="spacing" textLength="111.896" x="535.5752" y="178.3633">{message, tab, history}</text></g><g class="message" data-entity-1="part3" data-entity-2="part4" id="msg3"><polygon fill="#111111" points="817.9287,217.9922,827.9287,221.9922,817.9287,225.9922,821.9287,221.9922" style="stroke:#111111;stroke-width:1;"/><line style="stroke:#111111;stroke-width:1;" x1="671.3027" x2="823.9287" y1="221.9922" y2="221.9922"/><text fill="#000000" font-family="'Arial'" font-size="11" lengthAdjust="spacing" textLength="127.1768" x="678.3027" y="205.0122">&#272;&#7885;c user_id, company_id,</text><text fill="#000000" font-family="'Arial'" font-size="11" lengthAdjust="spacing" textLength="57.4761" x="678.3027" y="217.6611">role t&#7915; JWT</text></g><g class="message" data-entity-1="part4" data-entity-2="part3" id="msg4"><polygon fill="#111111" points="682.3027,244.6411,672.3027,248.6411,682.3027,252.6411,678.3027,248.6411" style="stroke:#111111;stroke-width:1;"/><line style="stroke:#111111;stroke-width:1;stroke-dasharray:2,2;" x1="676.3027" x2="828.9287" y1="248.6411" y2="248.6411"/><text fill="#000000" font-family="'Arial'" font-size="11" lengthAdjust="spacing" textLength="72.7676" x="688.3027" y="244.3101">Tenant context</text></g><path d="M606.197,263.6411 L664.0339,263.6411 L664.0339,268.29 L654.0339,278.29 L606.197,278.29 L606.197,263.6411" fill="#EEEEEE" style="stroke:#000000;stroke-width:1.5;"/><rect fill="none" height="134.8936" style="stroke:#000000;stroke-width:1.5;" width="610.7158" x="606.197" y="263.6411"/><text fill="#000000" font-family="'Arial'" font-size="11" font-weight="bold" lengthAdjust="spacing" textLength="12.8369" x="621.197" y="274.959">alt</text><text fill="#000000" font-family="'Arial'" font-size="11" font-weight="bold" lengthAdjust="spacing" textLength="151.5615" x="679.0339" y="275.959">[Frontend kh&#244;ng g&#7917;i history]</text><g class="message" data-entity-1="part3" data-entity-2="part6" id="msg5"><polygon fill="#111111" points="1141.626,305.5879,1151.626,309.5879,1141.626,313.5879,1145.626,309.5879" style="stroke:#111111;stroke-width:1;"/><line style="stroke:#111111;stroke-width:1;" x1="671.3027" x2="1147.626" y1="309.5879" y2="309.5879"/><text fill="#000000" font-family="'Arial'" font-size="11" lengthAdjust="spacing" textLength="105.1553" x="678.3027" y="292.6079">SELECT chat_history</text><text fill="#000000" font-family="'Arial'" font-size="11" lengthAdjust="spacing" textLength="135.7544" x="678.3027" y="305.2568">user_id + company_id + tab</text></g><g class="message" data-entity-1="part6" data-entity-2="part3" id="msg6"><polygon fill="#111111" points="682.3027,332.2368,672.3027,336.2368,682.3027,340.2368,678.3027,336.2368" style="stroke:#111111;stroke-width:1;"/><line style="stroke:#111111;stroke-width:1;stroke-dasharray:2,2;" x1="676.3027" x2="1152.626" y1="336.2368" y2="336.2368"/><text fill="#000000" font-family="'Arial'" font-size="11" lengthAdjust="spacing" textLength="81.2432" x="688.3027" y="331.9058">50 l&#432;&#7907;t g&#7847;n nh&#7845;t</text></g><line style="stroke:#000000;stroke-width:1;stroke-dasharray:2,2;" x1="606.197" x2="1216.9128" y1="345.2368" y2="345.2368"/><text fill="#000000" font-family="'Arial'" font-size="11" font-weight="bold" lengthAdjust="spacing" textLength="115.5107" x="611.197" y="355.5547">[Frontend g&#7917;i history]</text><g class="message" data-entity-1="part3" data-entity-2="part3" id="msg7"><line style="stroke:#111111;stroke-width:1;" x1="671.3027" x2="713.3027" y1="377.5347" y2="377.5347"/><line style="stroke:#111111;stroke-width:1;" x1="713.3027" x2="713.3027" y1="377.5347" y2="390.5347"/><line style="stroke:#111111;stroke-width:1;" x1="672.3027" x2="713.3027" y1="390.5347" y2="390.5347"/><polygon fill="#111111" points="682.3027,386.5347,672.3027,390.5347,682.3027,394.5347,678.3027,390.5347" style="stroke:#111111;stroke-width:1;"/><text fill="#000000" font-family="'Arial'" font-size="11" lengthAdjust="spacing" textLength="129.626" x="678.3027" y="373.2036">D&#249;ng history trong request</text></g><g class="message" data-entity-1="part3" data-entity-2="part5" id="msg8"><polygon fill="#111111" points="908.7671,432.8325,918.7671,436.8325,908.7671,440.8325,912.7671,436.8325" style="stroke:#111111;stroke-width:1;"/><line style="stroke:#111111;stroke-width:1;" x1="671.3027" x2="914.7671" y1="436.8325" y2="436.8325"/><text fill="#000000" font-family="'Arial'" font-size="11" lengthAdjust="spacing" textLength="113.7168" x="678.3027" y="419.8525">ChatAsync(companyId,</text><text fill="#000000" font-family="'Arial'" font-size="11" lengthAdjust="spacing" textLength="108.2114" x="678.3027" y="432.5015">message, tab, history)</text></g><g class="message" data-entity-1="part5" data-entity-2="part5" id="msg9"><line style="stroke:#111111;stroke-width:1;" x1="930.7671" x2="972.7671" y1="476.1304" y2="476.1304"/><line style="stroke:#111111;stroke-width:1;" x1="972.7671" x2="972.7671" y1="476.1304" y2="489.1304"/><line style="stroke:#111111;stroke-width:1;" x1="931.7671" x2="972.7671" y1="489.1304" y2="489.1304"/><polygon fill="#111111" points="941.7671,485.1304,931.7671,489.1304,941.7671,493.1304,937.7671,489.1304" style="stroke:#111111;stroke-width:1;"/><text fill="#000000" font-family="'Arial'" font-size="11" lengthAdjust="spacing" textLength="117.4014" x="937.7671" y="459.1504">DetectIntent rule-based;</text><text fill="#000000" font-family="'Arial'" font-size="11" lengthAdjust="spacing" textLength="193.8589" x="937.7671" y="471.7993">n&#7871;u unknown th&#236; ph&#226;n lo&#7841;i b&#7857;ng Gemini</text></g><path d="M873.0063,504.1304 L930.8433,504.1304 L930.8433,508.7793 L920.8433,518.7793 L873.0063,518.7793 L873.0063,504.1304" fill="#EEEEEE" style="stroke:#000000;stroke-width:1.5;"/><rect fill="none" height="363.0317" style="stroke:#000000;stroke-width:1.5;" width="653.2322" x="873.0063" y="504.1304"/><text fill="#000000" font-family="'Arial'" font-size="11" font-weight="bold" lengthAdjust="spacing" textLength="12.8369" x="888.0063" y="515.4482">alt</text><text fill="#000000" font-family="'Arial'" font-size="11" font-weight="bold" lengthAdjust="spacing" textLength="177.2676" x="945.8433" y="516.4482">[tab business / internal_business]</text><g class="message" data-entity-1="part5" data-entity-2="part7" id="msg10"><polygon fill="#111111" points="1253.6155,546.0771,1263.6155,550.0771,1253.6155,554.0771,1257.6155,550.0771" style="stroke:#111111;stroke-width:1;"/><line style="stroke:#111111;stroke-width:1;" x1="930.7671" x2="1259.6155" y1="550.0771" y2="550.0771"/><text fill="#000000" font-family="'Arial'" font-size="11" lengthAdjust="spacing" textLength="134.5244" x="937.7671" y="533.0972">Truy v&#7845;n s&#7889; li&#7879;u kinh doanh</text><text fill="#000000" font-family="'Arial'" font-size="11" lengthAdjust="spacing" textLength="141.8667" x="937.7671" y="545.7461">b&#7857;ng Npgsql, c&#243; company_id</text></g><g class="message" data-entity-1="part7" data-entity-2="part5" id="msg11"><polygon fill="#111111" points="941.7671,585.375,931.7671,589.375,941.7671,593.375,937.7671,589.375" style="stroke:#111111;stroke-width:1;"/><line style="stroke:#111111;stroke-width:1;stroke-dasharray:2,2;" x1="935.7671" x2="1264.6155" y1="589.375" y2="589.375"/><text fill="#000000" font-family="'Arial'" font-size="11" lengthAdjust="spacing" textLength="118.5186" x="947.7671" y="572.395">Context doanh thu, &#273;&#417;n,</text><text fill="#000000" font-family="'Arial'" font-size="11" lengthAdjust="spacing" textLength="153.4951" x="947.7671" y="585.0439">s&#7843;n ph&#7849;m, kh&#225;ch h&#224;ng, t&#7891;n kho</text></g><line style="stroke:#000000;stroke-width:1;stroke-dasharray:2,2;" x1="873.0063" x2="1526.2385" y1="598.375" y2="598.375"/><text fill="#000000" font-family="'Arial'" font-size="11" font-weight="bold" lengthAdjust="spacing" textLength="62.96" x="878.0063" y="608.6929">[tab market]</text><g class="message" data-entity-1="part5" data-entity-2="part8" id="msg12"><polygon fill="#111111" points="1408.2783,639.3218,1418.2783,643.3218,1408.2783,647.3218,1412.2783,643.3218" style="stroke:#111111;stroke-width:1;"/><line style="stroke:#111111;stroke-width:1;" x1="930.7671" x2="1414.2783" y1="643.3218" y2="643.3218"/><text fill="#000000" font-family="'Arial'" font-size="11" lengthAdjust="spacing" textLength="107.019" x="937.7671" y="626.3418">&#272;&#7885;c raw_google_data</text><text fill="#000000" font-family="'Arial'" font-size="11" lengthAdjust="spacing" textLength="103.9307" x="937.7671" y="638.9907">v&#224; scraper_keywords</text></g><g class="message" data-entity-1="part8" data-entity-2="part5" id="msg13"><polygon fill="#111111" points="941.7671,665.9707,931.7671,669.9707,941.7671,673.9707,937.7671,669.9707" style="stroke:#111111;stroke-width:1;"/><line style="stroke:#111111;stroke-width:1;stroke-dasharray:2,2;" x1="935.7671" x2="1419.2783" y1="669.9707" y2="669.9707"/><text fill="#000000" font-family="'Arial'" font-size="11" lengthAdjust="spacing" textLength="139.8311" x="947.7671" y="665.6396">Context xu h&#432;&#7899;ng th&#7883; tr&#432;&#7901;ng</text></g><line style="stroke:#000000;stroke-width:1;stroke-dasharray:2,2;" x1="873.0063" x2="1526.2385" y1="678.9707" y2="678.9707"/><text fill="#000000" font-family="'Arial'" font-size="11" font-weight="bold" lengthAdjust="spacing" textLength="74.5723" x="878.0063" y="689.2886">[tab feedback]</text><g class="message" data-entity-1="part5" data-entity-2="part8" id="msg14"><polygon fill="#111111" points="1408.2783,707.2686,1418.2783,711.2686,1408.2783,715.2686,1412.2783,711.2686" style="stroke:#111111;stroke-width:1;"/><line style="stroke:#111111;stroke-width:1;" x1="930.7671" x2="1414.2783" y1="711.2686" y2="711.2686"/><text fill="#000000" font-family="'Arial'" font-size="11" lengthAdjust="spacing" textLength="118.0244" x="937.7671" y="706.9375">&#272;&#7885;c facebook_feedback</text></g><g class="message" data-entity-1="part8" data-entity-2="part5" id="msg15"><polygon fill="#111111" points="941.7671,733.9175,931.7671,737.9175,941.7671,741.9175,937.7671,737.9175" style="stroke:#111111;stroke-width:1;"/><line style="stroke:#111111;stroke-width:1;stroke-dasharray:2,2;" x1="935.7671" x2="1419.2783" y1="737.9175" y2="737.9175"/><text fill="#000000" font-family="'Arial'" font-size="11" lengthAdjust="spacing" textLength="133.9175" x="947.7671" y="733.5864">Context sentiment/ph&#7843;n h&#7891;i</text></g><line style="stroke:#000000;stroke-width:1;stroke-dasharray:2,2;" x1="873.0063" x2="1526.2385" y1="746.9175" y2="746.9175"/><text fill="#000000" font-family="'Arial'" font-size="11" font-weight="bold" lengthAdjust="spacing" textLength="86.2168" x="878.0063" y="757.2354">[cross_analysis]</text><g class="message" data-entity-1="part5" data-entity-2="part7" id="msg16"><polygon fill="#111111" points="1253.6155,775.2153,1263.6155,779.2153,1253.6155,783.2153,1257.6155,779.2153" style="stroke:#111111;stroke-width:1;"/><line style="stroke:#111111;stroke-width:1;" x1="930.7671" x2="1259.6155" y1="779.2153" y2="779.2153"/><text fill="#000000" font-family="'Arial'" font-size="11" lengthAdjust="spacing" textLength="87.479" x="937.7671" y="774.8843">L&#7845;y d&#7919; li&#7879;u n&#7897;i b&#7897;</text></g><g class="message" data-entity-1="part7" data-entity-2="part5" id="msg17"><polygon fill="#111111" points="941.7671,801.8643,931.7671,805.8643,941.7671,809.8643,937.7671,805.8643" style="stroke:#111111;stroke-width:1;"/><line style="stroke:#111111;stroke-width:1;stroke-dasharray:2,2;" x1="935.7671" x2="1264.6155" y1="805.8643" y2="805.8643"/><text fill="#000000" font-family="'Arial'" font-size="11" lengthAdjust="spacing" textLength="70.936" x="947.7671" y="801.5332">Context n&#7897;i b&#7897;</text></g><g class="message" data-entity-1="part5" data-entity-2="part8" id="msg18"><polygon fill="#111111" points="1408.2783,828.5132,1418.2783,832.5132,1408.2783,836.5132,1412.2783,832.5132" style="stroke:#111111;stroke-width:1;"/><line style="stroke:#111111;stroke-width:1;" x1="930.7671" x2="1414.2783" y1="832.5132" y2="832.5132"/><text fill="#000000" font-family="'Arial'" font-size="11" lengthAdjust="spacing" textLength="84.4229" x="937.7671" y="828.1821">L&#7845;y d&#7919; li&#7879;u ngo&#224;i</text></g><g class="message" data-entity-1="part8" data-entity-2="part5" id="msg19"><polygon fill="#111111" points="941.7671,855.1621,931.7671,859.1621,941.7671,863.1621,937.7671,859.1621" style="stroke:#111111;stroke-width:1;"/><line style="stroke:#111111;stroke-width:1;stroke-dasharray:2,2;" x1="935.7671" x2="1419.2783" y1="859.1621" y2="859.1621"/><text fill="#000000" font-family="'Arial'" font-size="11" lengthAdjust="spacing" textLength="67.8799" x="947.7671" y="854.8311">Context ngo&#224;i</text></g><g class="message" data-entity-1="part5" data-entity-2="part5" id="msg20"><line style="stroke:#111111;stroke-width:1;" x1="930.7671" x2="972.7671" y1="905.46" y2="905.46"/><line style="stroke:#111111;stroke-width:1;" x1="972.7671" x2="972.7671" y1="905.46" y2="918.46"/><line style="stroke:#111111;stroke-width:1;" x1="931.7671" x2="972.7671" y1="918.46" y2="918.46"/><polygon fill="#111111" points="941.7671,914.46,931.7671,918.46,941.7671,922.46,937.7671,918.46" style="stroke:#111111;stroke-width:1;"/><text fill="#000000" font-family="'Arial'" font-size="11" lengthAdjust="spacing" textLength="102.7437" x="937.7671" y="888.48">T&#7841;o prompt t&#7915; intent,</text><text fill="#000000" font-family="'Arial'" font-size="11" lengthAdjust="spacing" textLength="131.4951" x="937.7671" y="901.1289">context v&#224; l&#7883;ch s&#7917; g&#7847;n nh&#7845;t</text></g><path d="M873.0063,933.46 L930.8433,933.46 L930.8433,938.1089 L920.8433,948.1089 L873.0063,948.1089 L873.0063,933.46" fill="#EEEEEE" style="stroke:#000000;stroke-width:1.5;"/><rect fill="none" height="283.436" style="stroke:#000000;stroke-width:1.5;" width="986.9119" x="873.0063" y="933.46"/><text fill="#000000" font-family="'Arial'" font-size="11" font-weight="bold" lengthAdjust="spacing" textLength="12.8369" x="888.0063" y="944.7778">alt</text><text fill="#000000" font-family="'Arial'" font-size="11" font-weight="bold" lengthAdjust="spacing" textLength="200.938" x="945.8433" y="945.7778">[Gemini c&#242;n quota v&#224; ph&#7843;n h&#7891;i h&#7907;p l&#7879;]</text><g class="message" data-entity-1="part5" data-entity-2="part9" id="msg21"><polygon fill="#111111" points="1568.3162,962.7578,1578.3162,966.7578,1568.3162,970.7578,1572.3162,966.7578" style="stroke:#111111;stroke-width:1;"/><line style="stroke:#111111;stroke-width:1;" x1="930.7671" x2="1574.3162" y1="966.7578" y2="966.7578"/><text fill="#000000" font-family="'Arial'" font-size="11" lengthAdjust="spacing" textLength="81.9521" x="937.7671" y="962.4268">generateContent</text></g><g class="message" data-entity-1="part9" data-entity-2="part5" id="msg22"><polygon fill="#111111" points="941.7671,989.4067,931.7671,993.4067,941.7671,997.4067,937.7671,993.4067" style="stroke:#111111;stroke-width:1;"/><line style="stroke:#111111;stroke-width:1;stroke-dasharray:2,2;" x1="935.7671" x2="1579.3162" y1="993.4067" y2="993.4067"/><text fill="#000000" font-family="'Arial'" font-size="11" lengthAdjust="spacing" textLength="36.6792" x="947.7671" y="989.0757">Answer</text></g><line style="stroke:#000000;stroke-width:1;stroke-dasharray:2,2;" x1="873.0063" x2="1859.9182" y1="1002.4067" y2="1002.4067"/><text fill="#000000" font-family="'Arial'" font-size="11" font-weight="bold" lengthAdjust="spacing" textLength="116.1069" x="878.0063" y="1012.7246">[Gemini l&#7895;i/qu&#225; quota]</text><g class="message" data-entity-1="part5" data-entity-2="part10" id="msg23"><polygon fill="#111111" points="1662.0142,1030.7046,1672.0142,1034.7046,1662.0142,1038.7046,1666.0142,1034.7046" style="stroke:#111111;stroke-width:1;"/><line style="stroke:#111111;stroke-width:1;" x1="930.7671" x2="1668.0142" y1="1034.7046" y2="1034.7046"/><text fill="#000000" font-family="'Arial'" font-size="11" lengthAdjust="spacing" textLength="82.543" x="937.7671" y="1030.3735">chat/completions</text></g><g class="message" data-entity-1="part10" data-entity-2="part5" id="msg24"><polygon fill="#111111" points="941.7671,1057.3535,931.7671,1061.3535,941.7671,1065.3535,937.7671,1061.3535" style="stroke:#111111;stroke-width:1;"/><line style="stroke:#111111;stroke-width:1;stroke-dasharray:2,2;" x1="935.7671" x2="1673.0142" y1="1061.3535" y2="1061.3535"/><text fill="#000000" font-family="'Arial'" font-size="11" lengthAdjust="spacing" textLength="77.0322" x="947.7671" y="1057.0225">Answer fallback</text></g><line style="stroke:#000000;stroke-width:1;stroke-dasharray:2,2;" x1="873.0063" x2="1859.9182" y1="1070.3535" y2="1070.3535"/><text fill="#000000" font-family="'Arial'" font-size="11" font-weight="bold" lengthAdjust="spacing" textLength="117.9224" x="878.0063" y="1080.6714">[LLM kh&#244;ng kh&#7843; d&#7909;ng]</text><g class="message" data-entity-1="part5" data-entity-2="part11" id="msg25"><polygon fill="#111111" points="1769.7764,1111.3003,1779.7764,1115.3003,1769.7764,1119.3003,1773.7764,1115.3003" style="stroke:#111111;stroke-width:1;"/><line style="stroke:#111111;stroke-width:1;" x1="930.7671" x2="1775.7764" y1="1115.3003" y2="1115.3003"/><text fill="#000000" font-family="'Arial'" font-size="11" lengthAdjust="spacing" textLength="117.9922" x="937.7671" y="1098.3203">POST /recommendation</text><text fill="#000000" font-family="'Arial'" font-size="11" lengthAdjust="spacing" textLength="135.6631" x="937.7671" y="1110.9692">n&#7871;u c&#7847;n fallback &#273;&#7883;nh l&#432;&#7907;ng</text></g><g class="message" data-entity-1="part11" data-entity-2="part5" id="msg26"><polygon fill="#111111" points="941.7671,1137.9492,931.7671,1141.9492,941.7671,1145.9492,937.7671,1141.9492" style="stroke:#111111;stroke-width:1;"/><line style="stroke:#111111;stroke-width:1;stroke-dasharray:2,2;" x1="935.7671" x2="1780.7764" y1="1141.9492" y2="1141.9492"/><text fill="#000000" font-family="'Arial'" font-size="11" lengthAdjust="spacing" textLength="126.5645" x="947.7671" y="1137.6182">Recommendation fallback</text></g><line style="stroke:#000000;stroke-width:1;stroke-dasharray:2,2;" x1="873.0063" x2="1859.9182" y1="1150.9492" y2="1150.9492"/><text fill="#000000" font-family="'Arial'" font-size="11" font-weight="bold" lengthAdjust="spacing" textLength="131.9893" x="878.0063" y="1161.2671">[Kh&#244;ng c&#243; d&#7883;ch v&#7909; ngo&#224;i]</text><g class="message" data-entity-1="part5" data-entity-2="part5" id="msg27"><line style="stroke:#111111;stroke-width:1;" x1="930.7671" x2="972.7671" y1="1195.896" y2="1195.896"/><line style="stroke:#111111;stroke-width:1;" x1="972.7671" x2="972.7671" y1="1195.896" y2="1208.896"/><line style="stroke:#111111;stroke-width:1;" x1="931.7671" x2="972.7671" y1="1208.896" y2="1208.896"/><polygon fill="#111111" points="941.7671,1204.896,931.7671,1208.896,941.7671,1212.896,937.7671,1208.896" style="stroke:#111111;stroke-width:1;"/><text fill="#000000" font-family="'Arial'" font-size="11" lengthAdjust="spacing" textLength="125.8286" x="937.7671" y="1178.916">T&#7841;o c&#226;u tr&#7843; l&#7901;i rule-based</text><text fill="#000000" font-family="'Arial'" font-size="11" lengthAdjust="spacing" textLength="106.4175" x="937.7671" y="1191.5649">t&#7915; context &#273;&#227; truy v&#7845;n</text></g><g class="message" data-entity-1="part5" data-entity-2="part3" id="msg28"><polygon fill="#111111" points="682.3027,1263.8428,672.3027,1267.8428,682.3027,1271.8428,678.3027,1267.8428" style="stroke:#111111;stroke-width:1;"/><line style="stroke:#111111;stroke-width:1;stroke-dasharray:2,2;" x1="676.3027" x2="924.7671" y1="1267.8428" y2="1267.8428"/><text fill="#000000" font-family="'Arial'" font-size="11" lengthAdjust="spacing" textLength="72.7676" x="688.3027" y="1238.2139">ChatResponse</text><text fill="#000000" font-family="'Arial'" font-size="11" lengthAdjust="spacing" textLength="133.2891" x="688.3027" y="1250.8628">answer, intent, modelUsed,</text><text fill="#000000" font-family="'Arial'" font-size="11" lengthAdjust="spacing" textLength="107.6045" x="688.3027" y="1263.5117">fallbackUsed, sources</text></g><g class="message" data-entity-1="part3" data-entity-2="part6" id="msg29"><polygon fill="#111111" points="1141.626,1303.1406,1151.626,1307.1406,1141.626,1311.1406,1145.626,1307.1406" style="stroke:#111111;stroke-width:1;"/><line style="stroke:#111111;stroke-width:1;" x1="671.3027" x2="1147.626" y1="1307.1406" y2="1307.1406"/><text fill="#000000" font-family="'Arial'" font-size="11" lengthAdjust="spacing" textLength="102.7007" x="678.3027" y="1290.1606">INSERT chat_history</text><text fill="#000000" font-family="'Arial'" font-size="11" lengthAdjust="spacing" textLength="207.2705" x="678.3027" y="1302.8096">fire-and-forget b&#7857;ng IServiceScopeFactory</text></g><g class="message" data-entity-1="part6" data-entity-2="part3" id="msg30"><polygon fill="#111111" points="682.3027,1329.7896,672.3027,1333.7896,682.3027,1337.7896,678.3027,1333.7896" style="stroke:#111111;stroke-width:1;"/><line style="stroke:#111111;stroke-width:1;stroke-dasharray:2,2;" x1="676.3027" x2="1152.626" y1="1333.7896" y2="1333.7896"/><text fill="#000000" font-family="'Arial'" font-size="11" lengthAdjust="spacing" textLength="128.4497" x="688.3027" y="1329.4585">&#272;&#227; ghi ho&#7863;c b&#7887; qua l&#7895;i l&#432;u</text></g><g class="message" data-entity-1="part3" data-entity-2="part2" id="msg31"><polygon fill="#111111" points="539.5752,1356.4385,529.5752,1360.4385,539.5752,1364.4385,535.5752,1360.4385" style="stroke:#111111;stroke-width:1;"/><line style="stroke:#111111;stroke-width:1;stroke-dasharray:2,2;" x1="533.5752" x2="665.3027" y1="1360.4385" y2="1360.4385"/><text fill="#000000" font-family="'Arial'" font-size="11" lengthAdjust="spacing" textLength="77.6445" x="545.5752" y="1356.1074">JSON response</text></g><g class="message" data-entity-1="part2" data-entity-2="part1" id="msg32"><polygon fill="#111111" points="407.3047,1398.7363,397.3047,1402.7363,407.3047,1406.7363,403.3047,1402.7363" style="stroke:#111111;stroke-width:1;"/><line style="stroke:#111111;stroke-width:1;stroke-dasharray:2,2;" x1="401.3047" x2="527.5752" y1="1402.7363" y2="1402.7363"/><text fill="#000000" font-family="'Arial'" font-size="11" lengthAdjust="spacing" textLength="89.1387" x="413.3047" y="1385.7563">Hi&#7875;n th&#7883; c&#226;u tr&#7843; l&#7901;i</text><text fill="#000000" font-family="'Arial'" font-size="11" lengthAdjust="spacing" textLength="84.2617" x="413.3047" y="1398.4053">v&#224; g&#7907;i &#253; ti&#7871;p theo</text></g><path d="M5,1373.4385 L5,1408.4385 L391,1408.4385 L391,1383.4385 L381,1373.4385 L5,1373.4385" fill="#FAFAFA" style="stroke:#181818;stroke-width:0.5;"/><path d="M381,1373.4385 L381,1383.4385 L391,1383.4385 L381,1373.4385" fill="#FAFAFA" style="stroke:#181818;stroke-width:0.5;"/><text fill="#000000" font-family="'Arial'" font-size="11" lengthAdjust="spacing" textLength="290.8286" x="11" y="1388.7563">S&#7889; li&#7879;u trong c&#226;u tr&#7843; l&#7901;i &#273;&#432;&#7907;c l&#7845;y t&#7915; PostgreSQL/AI service.</text><text fill="#000000" font-family="'Arial'" font-size="11" lengthAdjust="spacing" textLength="365.8037" x="11" y="1401.4053">LLM d&#249;ng &#273;&#7875; di&#7877;n gi&#7843;i ng&#244;n ng&#7919; t&#7921; nhi&#234;n, kh&#244;ng thay th&#7871; d&#7919; li&#7879;u h&#7879; th&#7889;ng.</text><?plantuml-src XLVVQnj747w_ls9mNregHNMXVN2XuFf7wrHr7CiXBmAnkblTBJhjddVthAWXJw7aePJ4vA64KeXZGkcFqAOjb4gKFCZa_xZ_f3DxTpdfh2HwiAsxcTblPhxvPcs5ZJbqTgx3-eVGX7QQpHxA46vbisSGp_-3hOZPlhAmkUTvPYXamZGRmKX9vKTQZJXOdVA5DoPYWHeB335WiLby4_01IsExgwJTP-Yujga5YzTMMtJ4rnpMrnS3y-EKIv_3RG_WW6ahV94mQJzZ_Z3KAfN1begLXdTstQTcf7J0TM6mxZveiEbRfLU_Qei1Rml9bzv-x3xagBKQBxlSyJn6uM1jFtpvHpRxKK0m_rU6Qy0Ct31SUqa51zPsDIR9PT2LPO5lx3dJtPrbm-Br5ffh5STSTsMB9QBbvy-TpvRLyRBN4PVucvpuBTkLLsyUWHypCJBEFd-xxF4v7mafEboV29yxg-B9YUy5pB8-CzYo0sLig7ddUXkIj1yBloi9I2yI1dEVmFjmhNrquDpfZzMUmRWh1rWiW-Q1675fX98viksR2ow7RDpg-9ebN0CzTLwyhzImD-0yw6FZ6w3Pk1Sg5SQyHpOk2ZhMadC6HKQmUR2ta63DKgjZCg2pufYEo4tnSQs1p5Yqmxc0ecYL2sZkgn4cXeWmjRolkRtd4HUW-Ias6ZPWFygcpnBmvqzIYBBPVG4scpq76OdvBz934pIaxgBfmRNE4IostltkojiZRWmBUGEmRWqeEd67s2XEcEKvEpmN1QFblSTu5m-osNS-f0Yd9u8686BCR49_ToLIZHEKNm6funK-pGfCySJF2ORKZosKb8PXDFyRvpz42H4b7XoQ4W4H0qDqTjexMqZB1VfqPO46YL71mI-O6GPmZWiWFle0OXgrSujdJN-IMBPi-jHw77MdGlCw64MGRHhIyZMAcS9lcgJ6O20PL8LxDGxeH4EvQIRIVxU0kKT5Mzc8zwf6L0FbLS5gaRUvvRxT8-WMT1hp9ir2y4bNocpw8eLK3gKQIx3H_3T8elaJ2R7AfcS2-jdqEM8lIEqwWZYWdngKCMEW1GAZQidYNlaCgx44PFicjLQd4pZ1GaemsUmKOf7DxgM0EXn1e9YCkh8uQZy9pN6Cp9d_jT0k38fnclMAvKp98o3wj04Nfo_F99RDPDDpYRbaqvz73IBFcHz1D7yimmPHyA74PoflAYKqOdh8RHqwZdp5wPecTEN9_36ON4bwGpuPewXJykJqEg2tS229N3zWeXP7yrlaXjDr6LPOIXbw8vfBelMMamssdbJHjgWcM1ey_Q783_MrCgR7i8aJ8rRthusjcq2GpNulMoUpsIFYn-pHctkpPBSYdnMHGpL_BDwIJs7aXkcrl3z23Yj8y4QHs5nuX9i1v4SXCa1DZB4Ho0v3jvEbcNTyB_JTd_yfuJXLbZcVnIhIp_E4mjohvrWuRq389TSuhmw_h9XsAS5DQSQurrrZ2XCC_Bre7QVpinp0fKDelMmuqMlHoCIS5eHh9BrPVGAKUoK_gjt-gfJO8QL67NcAhAmTLIweSdCixwHIJtnNn5UBw-8K2um3ckkg2rh6gMCxN8fNm_XbZe-K8SXRTe8WAxwyXGTk7rfDoSNkAbKfOLSwTfIak3YTdzCLj92iIoohX9uq-v2R1CkDgvgvoZPAbk65Dk0nhcRIyJ8LznMCIhNFZHVmLK9UMsfx-vsTm_fI6mZDcqm6pO7I8RUbKkyLzuQEhnA-wowF4w--uouUO7vXXCH5bV_7f-cyZzHYETEeJsa9ehnJNErSsySLbcUw2DjT1EXEWPRk5h81N-0StvM5mDMhdkicxizp0VYVW1N8c0HjkV8ygJ0WNaAi6dcTXJMHBz1B_KEj9qBv-9KqnBMmkX6sy19byc9SyOZUxkRio7WNRuZPx1i98PwEE6I8nCAV948BLwL6EH4sOXDAP_fYIQWmltikorCPNY6I02NW_Gy0?></g></svg>